<svg width="32" height="30" viewBox="0 0 32 30" fill="none" xmlns="http://www.w3.org/2000/svg">
<path d="M15.11 29.4933C7.7 29.4933 1.73 23.2933 1.73 15.8833C1.73 11.9633 3.42 8.42333 6.11 5.96333H6.09C8.5 3.62333 11.76 2.18333 15.35 2.18333C17.73 2.18333 19.97 2.82333 21.9 3.93333C22.66 4.27333 23.87 4.32333 24.93 4.07333C25.22 4.00333 25.48 3.93333 25.71 3.86333C25.79 4.11333 25.84 4.37332 25.86 4.63332C25.86 4.72332 25.86 4.81333 25.86 4.90333C25.85 5.58333 25.64 6.33333 25.28 7.04333C25.12 7.36333 24.93 7.66332 24.72 7.95332C24.46 8.30332 24.03 8.78332 23.46 9.16332C22.97 9.33332 22.45 9.44333 21.9 9.47333C21.08 9.52333 20.29 9.39333 19.57 9.12333C20.02 9.90333 20.27 10.8133 20.27 11.7733C20.27 14.7333 17.87 17.1333 14.91 17.1333C14.24 17.1333 13.59 17.0033 13 16.7833C13.38 17.5233 13.6 18.3533 13.6 19.2433C13.6 21.9533 11.59 24.1933 8.97 24.5533C10.96 26.7833 13.87 28.1933 17.1 28.1933C17.25 28.1933 17.4 28.1933 17.55 28.1833C20.43 28.1833 23.97 27.2933 27.38 24.9833C29.56 23.5033 32.89 19.3233 31.65 19.3833C29.97 19.4733 28.77 19.0133 27.93 18.4133C27.97 18.0433 27.99 17.6733 27.99 17.2933C27.99 14.5433 26.97 12.0433 25.3 10.1233C25.63 9.82333 25.95 9.47333 26.24 9.08333C26.34 8.95333 26.43 8.82333 26.52 8.69333C26.93 8.07333 27.25 7.39333 27.46 6.71333C27.69 5.96333 27.8 5.21333 27.76 4.51333C27.72 3.76333 27.51 3.04333 27.13 2.37333C27.1 2.31333 27.06 2.25333 27.02 2.19333L26.61 1.53333L25.88 1.80333C24.96 2.15333 23 2.58333 22.54 2.43333H22.55C22.55 2.43333 22.55 2.43333 22.54 2.43333C20.35 1.22333 17.83 0.533325 15.15 0.533325C8.32 0.533325 2.52 5.02333 0.539999 11.2133C0.189999 12.5833 0 14.0133 0 15.4833C0 24.9833 7.18 31.2333 15.1 29.4833M19.17 20.6233C18.17 20.6233 17.27 20.3733 16.68 20.2133L17.14 18.5633C19.39 19.1833 20.91 19.1433 22.04 17.0633L23.54 17.8833C22.35 20.0833 20.65 20.6333 19.17 20.6333V20.6233Z" fill="url(#paint0_linear_1_67)"/>
<defs>
<linearGradient id="paint0_linear_1_67" x1="15.97" y1="0.543325" x2="15.97" y2="29.7833" gradientUnits="userSpaceOnUse">
<stop stop-color="#B194FF"/>
<stop offset="1" stop-color="#0443BF"/>
</linearGradient>
</defs>
</svg>
