<svg width="131" height="39" viewBox="0 0 131 39" fill="none" xmlns="http://www.w3.org/2000/svg">
<path d="M22.82 1.26337L18.9 1.55337C18.48 1.58337 18.16 1.95337 18.19 2.37337L19.27 16.8234C19.33 17.5934 18.34 17.9534 17.88 17.3334L7.3 2.79337C7.14 2.57337 6.89 2.46337 6.62 2.48337L1.65 2.85336C1.23 2.88336 0.909998 3.25336 0.939998 3.67336L2.91999 29.9934C2.94999 30.4134 3.31999 30.7334 3.73999 30.7034L7.62 30.4134C8.04 30.3834 8.36 30.0134 8.33 29.5934L7.18 14.2834C7.12 13.5134 8.09999 13.1534 8.55999 13.7634L20.04 29.1234C20.2 29.3334 20.45 29.4534 20.71 29.4334L24.89 29.1234C25.31 29.0934 25.63 28.7234 25.6 28.3034L23.62 1.98337C23.59 1.56337 23.22 1.24336 22.8 1.27336L22.82 1.26337Z" fill="white"/>
<path d="M35.15 4.77337C30.19 4.87337 27.43 9.34337 27.57 16.1734C27.74 24.1734 30.52 28.1534 35.9 28.0434C39.1 27.9734 41.58 25.7134 42.63 21.7334C42.75 21.2834 42.49 20.8034 42.13 20.8034L38.8 20.8734C38.59 20.8734 38.41 21.0634 38.33 21.3234C37.93 22.6034 36.84 23.3834 35.6 23.4134C33.67 23.4534 32.31 21.6634 31.94 18.7834C31.89 18.3734 32.12 18.0034 32.43 17.9934L42.49 17.7834C42.77 17.7834 43 17.4534 42.99 17.0634C42.68 8.77337 39.97 4.66338 35.15 4.76338V4.77337ZM36.75 14.5434L33.29 14.5934C32.96 14.5934 32.77 14.2034 32.77 13.7534C32.74 12.0334 34.16 11.3934 34.89 11.3934C35.39 11.3934 36.94 11.5134 37.24 13.7234C37.3 14.1434 37.06 14.5334 36.75 14.5334V14.5434Z" fill="white"/>
<path d="M56.59 15.9534C55.49 15.1934 53.93 14.5934 52.3 13.7634C50.75 12.9834 49.97 12.3834 50.05 11.0434C50.13 9.70337 51 9.20337 52.47 9.29337C54.08 9.38337 54.83 10.0834 55.01 11.8634C55.04 12.2034 55.22 12.4534 55.44 12.4634L58.3 12.6334C58.57 12.6534 58.8 12.2934 58.79 11.8834C58.67 7.48337 56.87 5.07337 52.84 4.83337C48.34 4.57337 46.46 7.36337 46.24 11.1834C46.12 13.2034 46.5 14.9834 47.8 16.4034C48.79 17.4734 50.13 18.2034 52.57 19.2734C53.8 19.8034 54.88 20.3834 54.79 21.9934C54.69 23.6934 53.42 24.2634 52.04 24.1834C50.32 24.0834 49.26 22.9934 49.18 21.2134C49.16 20.8834 48.99 20.6334 48.77 20.6234L45.65 20.4434C45.38 20.4234 45.15 20.7734 45.16 21.1734C45.23 25.3834 47.54 28.4434 51.82 28.6934C56.1 28.9434 58.43 26.2634 58.71 21.5734C58.88 18.6334 58.11 17.0134 56.6 15.9534H56.59Z" fill="white"/>
<path d="M88.33 4.00335H84.97C84.66 4.00335 84.4 4.33335 84.4 4.74335V16.8433C84.4 19.7833 83.18 21.9034 80.88 21.9034C78.96 21.9034 77.98 20.5433 77.98 17.7433V4.74335C77.98 4.33335 77.73 4.00335 77.41 4.00335H74.01C73.7 4.00335 73.44 4.33335 73.44 4.74335V18.6433C73.44 23.5233 75.85 26.8233 79.26 26.8233C81.63 26.8233 83.41 25.6533 84.6 23.1133V25.4933C84.6 25.9033 84.85 26.2334 85.17 26.2334H88.32C88.63 26.2334 88.89 25.9033 88.89 25.4933V4.73335C88.89 4.32335 88.64 3.99335 88.32 3.99335L88.33 4.00335Z" fill="white"/>
<path d="M95.95 7.90338H93.61C93.07 7.90338 92.64 8.46338 92.64 9.14338V28.3334C92.64 28.7734 92.91 29.1334 93.24 29.1334H96.33C96.66 29.1334 96.93 28.7734 96.93 28.3334V9.14338C96.93 8.45338 96.49 7.90338 95.96 7.90338H95.95Z" fill="white"/>
<path d="M67.2 8.3034H70.15C70.55 8.3034 70.87 8.66339 70.87 9.10339V12.3534C70.87 12.7934 70.55 13.1534 70.15 13.1534H67.2V22.5034C67.2 25.1834 68.06 26.9934 70.1 26.7434C70.16 26.7434 70.22 26.7234 70.29 26.7034C70.81 26.5734 71.35 26.8734 71.57 27.4134L72.55 29.8034C72.7 30.1734 72.58 30.6134 72.27 30.8234C71.8 31.1334 71.04 31.5234 70.02 31.6234C64.48 32.1734 62.25 27.6434 62.25 23.0634V4.84339C62.25 4.40339 62.57 4.0434 62.97 4.0434H66.48C66.88 4.0434 67.2 4.40339 67.2 4.84339V8.2934V8.3034Z" fill="white"/>
<path d="M107.5 4.70337L110.43 5.04338C110.82 5.09338 111.1 5.48337 111.05 5.92337L110.68 9.15338C110.63 9.59338 110.27 9.91338 109.87 9.87338L106.94 9.53337L105.87 18.8234C105.56 21.4834 106.21 23.3834 108.27 23.3634C108.33 23.3634 108.4 23.3634 108.46 23.3434C108.99 23.2734 109.49 23.6334 109.65 24.2034L110.35 26.6834C110.46 27.0734 110.29 27.4934 109.95 27.6734C109.45 27.9334 108.65 28.2234 107.63 28.2134C102.06 28.1234 100.37 23.3734 100.89 18.8234L101.84 10.5334L102.4 5.70337V5.62338L102.97 0.723377C103.02 0.283377 103.38 -0.0366243 103.78 0.00337566L107.27 0.403377C107.66 0.453377 107.94 0.843374 107.89 1.28337L107.5 4.71337V4.70337Z" fill="white"/>
<path d="M116.76 37.6733L118.59 31.6733L113.17 11.9334C113.03 11.4334 113.42 10.9533 113.93 10.9633L118.25 11.1234C118.6 11.1334 118.9 11.3834 118.97 11.7334L121.52 24.1134L124.73 11.6333C124.82 11.2933 125.12 11.0633 125.47 11.0633H129.66C130.17 11.0533 130.54 11.5333 130.4 12.0233L123.04 38.0734C122.95 38.4034 122.65 38.6233 122.31 38.6333L117.5 38.6633C116.99 38.6633 116.61 38.1733 116.76 37.6733Z" fill="white"/>
<path d="M94.78 5.55338C96.2712 5.55338 97.48 4.34455 97.48 2.85338C97.48 1.36221 96.2712 0.153381 94.78 0.153381C93.2888 0.153381 92.08 1.36221 92.08 2.85338C92.08 4.34455 93.2888 5.55338 94.78 5.55338Z" fill="white"/>
</svg>
