<svg width="171" height="39" viewBox="0 0 171 39" fill="none" xmlns="http://www.w3.org/2000/svg">
<path d="M15.11 30.4934C7.7 30.4934 1.73 24.2934 1.73 16.8834C1.73 12.9634 3.42 9.42336 6.11 6.96336H6.09C8.5 4.62336 11.76 3.18336 15.35 3.18336C17.73 3.18336 19.97 3.82336 21.9 4.93336C22.66 5.27336 23.87 5.32336 24.93 5.07336C25.22 5.00336 25.48 4.93336 25.71 4.86336C25.79 5.11336 25.84 5.37335 25.86 5.63335C25.86 5.72335 25.86 5.81336 25.86 5.90336C25.85 6.58336 25.64 7.33336 25.28 8.04336C25.12 8.36336 24.93 8.66335 24.72 8.95335C24.46 9.30335 24.03 9.78335 23.46 10.1634C22.97 10.3334 22.45 10.4434 21.9 10.4734C21.08 10.5234 20.29 10.3934 19.57 10.1234C20.02 10.9034 20.27 11.8134 20.27 12.7734C20.27 15.7334 17.87 18.1334 14.91 18.1334C14.24 18.1334 13.59 18.0034 13 17.7834C13.38 18.5234 13.6 19.3534 13.6 20.2434C13.6 22.9534 11.59 25.1934 8.97 25.5534C10.96 27.7834 13.87 29.1934 17.1 29.1934C17.25 29.1934 17.4 29.1934 17.55 29.1834C20.43 29.1834 23.97 28.2934 27.38 25.9834C29.56 24.5034 32.89 20.3234 31.65 20.3834C29.97 20.4734 28.77 20.0134 27.93 19.4134C27.97 19.0434 27.99 18.6734 27.99 18.2934C27.99 15.5434 26.97 13.0434 25.3 11.1234C25.63 10.8234 25.95 10.4734 26.24 10.0834C26.34 9.95336 26.43 9.82336 26.52 9.69336C26.93 9.07336 27.25 8.39336 27.46 7.71336C27.69 6.96336 27.8 6.21336 27.76 5.51336C27.72 4.76336 27.51 4.04336 27.13 3.37336C27.1 3.31336 27.06 3.25336 27.02 3.19336L26.61 2.53336L25.88 2.80336C24.96 3.15336 23 3.58336 22.54 3.43336H22.55C22.55 3.43336 22.55 3.43336 22.54 3.43336C20.35 2.22336 17.83 1.53336 15.15 1.53336C8.32 1.53336 2.52 6.02336 0.539999 12.2134C0.189999 13.5834 0 15.0134 0 16.4834C0 25.9834 7.18 32.2334 15.1 30.4834M19.17 21.6234C18.17 21.6234 17.27 21.3734 16.68 21.2134L17.14 19.5634C19.39 20.1834 20.91 20.1434 22.04 18.0634L23.54 18.8834C22.35 21.0834 20.65 21.6334 19.17 21.6334V21.6234Z" fill="url(#paint0_linear_1_79)"/>
<path d="M62.82 1.26337L58.9 1.55337C58.48 1.58337 58.16 1.95337 58.19 2.37337L59.27 16.8234C59.33 17.5934 58.34 17.9534 57.88 17.3334L47.3 2.79337C47.14 2.57337 46.89 2.46337 46.62 2.48337L41.65 2.85336C41.23 2.88336 40.91 3.25336 40.94 3.67336L42.92 29.9934C42.95 30.4134 43.32 30.7334 43.74 30.7034L47.62 30.4134C48.04 30.3834 48.36 30.0134 48.33 29.5934L47.18 14.2834C47.12 13.5134 48.1 13.1534 48.56 13.7634L60.04 29.1234C60.2 29.3334 60.45 29.4534 60.71 29.4334L64.89 29.1234C65.31 29.0934 65.63 28.7234 65.6 28.3034L63.62 1.98337C63.59 1.56337 63.22 1.24336 62.8 1.27336L62.82 1.26337Z" fill="#0443BF"/>
<path d="M75.15 4.77337C70.19 4.87337 67.43 9.34337 67.57 16.1734C67.74 24.1734 70.52 28.1534 75.9 28.0434C79.1 27.9734 81.58 25.7134 82.63 21.7334C82.75 21.2834 82.49 20.8034 82.13 20.8034L78.8 20.8734C78.59 20.8734 78.41 21.0634 78.33 21.3234C77.93 22.6034 76.84 23.3834 75.6 23.4134C73.67 23.4534 72.31 21.6634 71.94 18.7834C71.89 18.3734 72.12 18.0034 72.43 17.9934L82.49 17.7834C82.77 17.7834 83 17.4534 82.99 17.0634C82.68 8.77337 79.97 4.66338 75.15 4.76338V4.77337ZM76.75 14.5434L73.29 14.5934C72.96 14.5934 72.77 14.2034 72.77 13.7534C72.74 12.0334 74.16 11.3934 74.89 11.3934C75.39 11.3934 76.94 11.5134 77.24 13.7234C77.3 14.1434 77.06 14.5334 76.75 14.5334V14.5434Z" fill="#0443BF"/>
<path d="M96.59 15.9534C95.49 15.1934 93.93 14.5934 92.3 13.7634C90.75 12.9834 89.97 12.3834 90.05 11.0434C90.13 9.70337 91 9.20337 92.47 9.29337C94.08 9.38337 94.83 10.0834 95.01 11.8634C95.04 12.2034 95.22 12.4534 95.44 12.4634L98.3 12.6334C98.57 12.6534 98.8 12.2934 98.79 11.8834C98.67 7.48337 96.87 5.07337 92.84 4.83337C88.34 4.57337 86.46 7.36337 86.24 11.1834C86.12 13.2034 86.5 14.9834 87.8 16.4034C88.79 17.4734 90.13 18.2034 92.57 19.2734C93.8 19.8034 94.88 20.3834 94.79 21.9934C94.69 23.6934 93.42 24.2634 92.04 24.1834C90.32 24.0834 89.26 22.9934 89.18 21.2134C89.16 20.8834 88.99 20.6334 88.77 20.6234L85.65 20.4434C85.38 20.4234 85.15 20.7734 85.16 21.1734C85.23 25.3834 87.54 28.4434 91.82 28.6934C96.1 28.9434 98.43 26.2634 98.71 21.5734C98.88 18.6334 98.11 17.0134 96.6 15.9534H96.59Z" fill="#0443BF"/>
<path d="M128.33 4.00338H124.97C124.66 4.00338 124.4 4.33338 124.4 4.74338V16.8434C124.4 19.7834 123.18 21.9034 120.88 21.9034C118.96 21.9034 117.98 20.5434 117.98 17.7434V4.74338C117.98 4.33338 117.73 4.00338 117.41 4.00338H114.01C113.7 4.00338 113.44 4.33338 113.44 4.74338V18.6434C113.44 23.5234 115.85 26.8234 119.26 26.8234C121.63 26.8234 123.41 25.6534 124.6 23.1134V25.4934C124.6 25.9034 124.85 26.2334 125.17 26.2334H128.32C128.63 26.2334 128.89 25.9034 128.89 25.4934V4.73338C128.89 4.32338 128.64 3.99338 128.32 3.99338L128.33 4.00338Z" fill="#0443BF"/>
<path d="M135.95 7.90338H133.61C133.07 7.90338 132.64 8.46338 132.64 9.14338V28.3334C132.64 28.7734 132.91 29.1334 133.24 29.1334H136.33C136.66 29.1334 136.93 28.7734 136.93 28.3334V9.14338C136.93 8.45338 136.49 7.90338 135.96 7.90338H135.95Z" fill="#0443BF"/>
<path d="M107.2 8.30337H110.15C110.55 8.30337 110.87 8.66336 110.87 9.10336V12.3534C110.87 12.7934 110.55 13.1534 110.15 13.1534H107.2V22.5034C107.2 25.1834 108.06 26.9934 110.1 26.7434C110.16 26.7434 110.22 26.7234 110.29 26.7034C110.81 26.5734 111.35 26.8734 111.57 27.4134L112.55 29.8034C112.7 30.1734 112.58 30.6134 112.27 30.8234C111.8 31.1334 111.04 31.5234 110.02 31.6234C104.48 32.1734 102.25 27.6434 102.25 23.0634V4.84336C102.25 4.40336 102.57 4.04337 102.97 4.04337H106.48C106.88 4.04337 107.2 4.40336 107.2 4.84336V8.29337V8.30337Z" fill="#0443BF"/>
<path d="M147.5 4.70337L150.43 5.04338C150.82 5.09338 151.1 5.48337 151.05 5.92337L150.68 9.15338C150.63 9.59338 150.27 9.91338 149.87 9.87338L146.94 9.53337L145.87 18.8234C145.56 21.4834 146.21 23.3834 148.27 23.3634C148.33 23.3634 148.4 23.3634 148.46 23.3434C148.99 23.2734 149.49 23.6334 149.65 24.2034L150.35 26.6834C150.46 27.0734 150.29 27.4934 149.95 27.6734C149.45 27.9334 148.65 28.2234 147.63 28.2134C142.06 28.1234 140.37 23.3734 140.89 18.8234L141.84 10.5334L142.4 5.70337V5.62338L142.97 0.723377C143.02 0.283377 143.38 -0.0366243 143.78 0.00337566L147.27 0.403377C147.66 0.453377 147.94 0.843374 147.89 1.28337L147.5 4.71337V4.70337Z" fill="#0443BF"/>
<path d="M156.76 37.6734L158.59 31.6734L153.17 11.9334C153.03 11.4334 153.42 10.9534 153.93 10.9634L158.25 11.1234C158.6 11.1334 158.9 11.3834 158.97 11.7334L161.52 24.1134L164.73 11.6334C164.82 11.2934 165.12 11.0634 165.47 11.0634H169.66C170.17 11.0534 170.54 11.5334 170.4 12.0234L163.04 38.0734C162.95 38.4034 162.65 38.6234 162.31 38.6334L157.5 38.6634C156.99 38.6634 156.61 38.1734 156.76 37.6734Z" fill="#0443BF"/>
<path d="M134.78 5.55338C136.271 5.55338 137.48 4.34455 137.48 2.85338C137.48 1.36221 136.271 0.153381 134.78 0.153381C133.289 0.153381 132.08 1.36221 132.08 2.85338C132.08 4.34455 133.289 5.55338 134.78 5.55338Z" fill="#0443BF"/>
<defs>
<linearGradient id="paint0_linear_1_79" x1="15.97" y1="1.54336" x2="15.97" y2="30.7834" gradientUnits="userSpaceOnUse">
<stop stop-color="#B194FF"/>
<stop offset="1" stop-color="#0443BF"/>
</linearGradient>
</defs>
</svg>
