<svg xmlns="http://www.w3.org/2000/svg" version="1.1" viewBox="-5.0 -10.0 110.0 135.0">
 <g>
  <path fill="#0A58FF" d="m93.961 58.898c-1.5312-1.7734-3.6953-2.875-6.0312-3.0742 0.23047-1.4805 0.27734-2.9805 0.38281-4.4727 0.57422-7.5781-0.90625-15.168-4.293-21.973-2.8711-5.4805-7.0898-10.141-12.262-13.543-5.5156-3.6484-11.926-5.7109-18.535-5.957 0.41406-2.8359-0.69531-5.6758-2.9258-7.4766-1.4805-1.2188-3.3867-1.8008-5.2969-1.6133-1.7461 0.15234-3.3438 1.0273-4.4141 2.4141-0.66016 0.94141-0.98047 2.0781-0.90234 3.2266 0.69531-0.80078 1.5352-1.4648 2.4727-1.9648 1.1602-0.62109 2.5703-0.52344 3.6328 0.25781 0.90625 0.83594 1.3398 2.0664 1.168 3.2852-0.15234 1.5898-0.82422 3.0859-1.9102 4.2539-1.1289 1-2.5781 1.5547-4.0859 1.5703-2.1602 0.16016-4.3203-0.30859-6.2188-1.3477-8.9258 3.5391-16.086 10.473-19.91 19.281-1.5273 3.5547-2.5078 7.3164-2.9062 11.164-0.46484 4.2852-0.44922 8.6094 0.046875 12.891-3.7852 0.375-6.9336 3.0703-7.8828 6.7539-0.94922 3.6836 0.50391 7.5664 3.6406 9.7188 2.0352 1.3789 4.5352 1.9023 6.957 1.4531 1.8594 5.3555 4.832 10.25 8.7266 14.367 4.8164 5 10.973 8.5078 17.727 10.109 7.0195 1.668 14.371 1.2969 21.191-1.0664 5.4883-1.9258 10.441-5.1211 14.461-9.3242 3.8086-4.0352 6.7188-8.8242 8.5508-14.059 2.0273 0.33594 4.1133 0.007812 5.9414-0.93359 2.4648-1.2695 4.207-3.5977 4.7305-6.3203 0.51953-2.7188-0.23438-5.5312-2.0547-7.6211zm-62.629 5.9727c-2.7578-0.79297-5.0664-2.6953-6.375-5.25-1.8125-3.7266-1.1406-8.1836 1.6953-11.207 2.832-3.0195 7.2383-3.9805 11.07-2.4062 3.8359 1.5703 6.3008 5.3438 6.1992 9.4844-0.10156 4.1406-2.75 7.7891-6.6562 9.1719-1.9062 0.68359-3.9805 0.75781-5.9336 0.20703zm29.551 21.207v0.003906c-1.3008 2.3516-3.3203 4.2305-5.7617 5.3555-2.25 1.043-4.7656 1.375-7.207 0.95312-3.0469-0.49609-5.8008-2.0977-7.7305-4.5039-2.1641-2.7656-3.1367-6.2734-2.7109-9.7539 0.21875-2.2422 1.1992-4.3359 2.7773-5.9414 1.6875-1.6875 4.1172-2.3984 6.4492-1.8867 1.1719 0.28516 2.2539 0.85547 3.1484 1.6641 2.2461-2.168 5.6758-2.543 8.3359-0.91016 2.168 1.3906 3.6523 3.6289 4.0938 6.168 0.60938 3.0234 0.11328 6.1641-1.3945 8.8555zm14.68-28.004v0.003906c-1.4492 4.8242-6.2422 7.832-11.215 7.0391-2.5625-0.45313-4.8633-1.8477-6.4531-3.9062-3.3086-4.3125-2.5859-10.473 1.625-13.902 3.4453-2.8125 8.3242-3.0391 12.012-0.55859 3.6914 2.4766 5.3281 7.0781 4.0312 11.328z"/>
  <path fill="#0A58FF" d="m35.41 48.66c-1.2031-0.26172-2.4531-0.1875-3.6172 0.21484 0.52344 0.46094 0.91406 1.0508 1.1367 1.7109 0.22656 1.0195-0.13672 2.0742-0.9375 2.7383-0.83203 0.64062-1.957 0.74609-2.8945 0.26953-0.51953-0.26172-0.81641-0.78516-1.2305-1.1719v0.003906c-1.1445 2.5586-0.55859 5.5625 1.4688 7.5039 2.0234 1.9414 5.0508 2.4023 7.5625 1.1484 2.5117-1.2539 3.9609-3.9492 3.6289-6.7344-0.33594-2.7852-2.3828-5.0625-5.1172-5.6836z"/>
  <path fill="#0A58FF" d="m68.695 49.066c-1.5703-0.71484-3.3594-0.76562-4.9648-0.14453 0.78125 0.5625 1.2305 1.4727 1.207 2.4336-0.085938 1.4375-1.2852 2.5547-2.7227 2.5352-0.98828-0.058594-1.8789-0.61328-2.375-1.4688-0.71094 1.5117-0.81641 3.2344-0.29688 4.8242 0.625 1.8906 2.0625 3.4023 3.9219 4.125 1.332 0.48438 2.7812 0.5625 4.1602 0.22266 1.7617-0.48047 3.2578-1.6484 4.1484-3.2461 0.88672-1.5664 1.0898-3.4258 0.5625-5.1484-0.57422-1.832-1.8984-3.332-3.6406-4.1328z"/>
  <path fill="#0A58FF" d="m56.391 73.895c-1.2266-0.71094-2.7656-0.58203-3.8555 0.32031-0.64062 0.59766-1.043 1.4062-1.1367 2.2773 0.23437 0.28125 0.625 0.37891 0.91406 0.59766 1.6094 1.0977 2.2969 3.1289 1.6797 4.9805-0.49609 1.582-1.8672 2.7344-3.5117 2.9531-1.6445 0.21484-3.2656-0.54297-4.1523-1.9453-0.60938-0.96484-0.83594-2.1211-0.62891-3.2461 0.32031-1.4531 1.3242-2.6641 2.6992-3.2422-0.16797-1.043-0.73438-1.9844-1.5781-2.6211-0.875-0.52734-1.9414-0.625-2.8945-0.26172-1.4023 0.66797-2.4219 1.9453-2.7539 3.4648-0.53516 1.918-0.48047 3.9492 0.16406 5.8359 0.84766 2.5352 2.8047 4.5508 5.3164 5.4727 3.3242 1.2539 7.0742 0.49219 9.6445-1.9688 2.5664-2.457 3.4922-6.168 2.3867-9.543-0.375-1.2656-1.1875-2.3555-2.293-3.0742z"/>
 </g>
</svg>