<svg xmlns="http://www.w3.org/2000/svg" version="1.1" viewBox="-5.0 -10.0 110.0 135.0">
  <path d="m93.75 48.461c0-5.9023-4.7891-10.703-10.672-10.703-0.18359 0-0.35938 0.042969-0.53906 0.054688-5.043-13.648-18.164-22.934-32.945-22.934-15.48 0-28.887 9.9492-33.477 24.504-5.5 0.42188-9.8672 4.9961-9.8672 10.621s4.3633 10.168 9.8633 10.59c4.5781 14.562 17.992 24.527 33.477 24.527 4.7227 0 9.2891-0.94141 13.602-2.7578l7.1797 7.1602c0.60938 0.60547 1.4102 0.91406 2.207 0.91406s1.6016-0.30469 2.2109-0.91406l9.5234-9.5234 0.5-0.46875c0.027344-0.023438 0.054688-0.054688 0.085938-0.078125 3.8203-3.8672 3.8203-10.133-0.011719-13.973-0.84766-0.84766-1.8281-1.4922-2.8789-1.9766 0.60156-1.4297 1.1055-2.9023 1.5078-4.4102 5.6797-0.23438 10.234-4.8945 10.234-10.629zm-6.25 0c0 1.9102-1.2227 3.5234-2.9219 4.1406 0.066406-0.87109 0.13281-1.7461 0.13281-2.6016 0-1.9414-0.22656-3.8906-0.55078-5.8359 1.9141 0.49219 3.3359 2.2266 3.3359 4.3008zm-75 1.5391c0-1.6328 0.87891-3.0625 2.1797-3.8398-0.14063 1.2852-0.21094 2.5664-0.21094 3.8398s0.070312 2.5391 0.20703 3.8086c-1.3047-0.76953-2.1797-2.1875-2.1797-3.8086zm8.9961 6.6797c-0.51562-2.207-0.77734-4.4531-0.77734-6.6797s0.26172-4.4766 0.77734-6.7109c3.1016-13.051 14.652-22.164 28.094-22.164 1.6133 0 3.1992 0.13672 4.75 0.39453 0.011718 0.015625 0.011718 0.035157 0.023437 0.050781 1.7461 2.2266 1.4414 6.0078-0.63672 7.9297-2.082 1.9258-5.8711 1.9297-7.9531 0.007812-1.2734-1.168-3.2461-1.0859-4.4141 0.1875-1.168 1.2695-1.0859 3.2461 0.18359 4.4141 2.2266 2.043 5.2109 3.0664 8.2031 3.0664 2.9922 0 6-1.0273 8.2266-3.0859 2.8086-2.5938 4.0742-6.5391 3.6953-10.297 7.5898 3.5039 13.523 10.207 15.797 18.629 0.66406 2.5078 1 5.0586 1 7.5781 0 1.9766-0.19922 3.9453-0.60547 5.9766-0.50781 2.4102-1.3789 4.7227-2.4883 6.9258-0.95703 0.25-1.8672 0.63281-2.7031 1.1562-3.8438-2.5117-9.0859-2.0938-12.488 1.2578-1.875 1.8789-2.9062 4.3672-2.9062 7.0234 0 1.8125 0.51562 3.5312 1.4141 5.0508-2.918 0.97266-5.9648 1.4766-9.0977 1.4766-13.445 0-25-9.1289-28.094-22.191zm58.988 18.34-7.9062 7.8789-7.9766-7.9492c-0.69531-0.69531-1.0781-1.6172-1.0781-2.6016s0.38281-1.9062 1.0625-2.5898c0.72266-0.71484 1.6758-1.0703 2.6211-1.0703 0.94531 0 1.8867 0.35156 2.6016 1.0547l0.625 0.625c0.58594 0.58594 1.3828 0.91406 2.2109 0.91406s1.625-0.33203 2.2109-0.91797l0.47656-0.47656c0.67578-0.68359 1.5742-1.0625 2.5391-1.0625h0.011718c0.97266 0 1.8867 0.38281 2.582 1.0742 1.3984 1.3984 1.4062 3.6914 0.023437 5.125z" fill="#ffffff"/>
  <path d="m40.055 47.395c0-1.6953-1.375-3.0703-3.0703-3.0703s-3.0703 1.3711-3.0703 3.0703c0 1.6953 1.3711 3.0703 3.0703 3.0703 1.6953 0 3.0703-1.375 3.0703-3.0703z" fill="#ffffff"/>
  <path d="m61.523 50.461c1.6953 0 3.0703-1.375 3.0703-3.0703s-1.375-3.0703-3.0703-3.0703c-1.6953 0-3.0703 1.3711-3.0703 3.0703 0 1.6953 1.375 3.0703 3.0703 3.0703z" fill="#ffffff"/>
  <path d="m60.613 60.574c0.85156-1.4961 0.32422-3.4062-1.1758-4.2578-1.5-0.85156-3.4102-0.32422-4.2578 1.1797-1.0078 1.7734-3.0547 3.0078-5.0938 3.0586-2.0391 0.15625-4.1523-1.0547-5.2578-2.7734-0.92969-1.4492-2.8672-1.8672-4.3203-0.93359-1.4492 0.9375-1.8672 2.8672-0.93359 4.3203 2.2227 3.4492 6.2617 5.6367 10.367 5.6367h0.32422c4.2109-0.11719 8.2734-2.5625 10.352-6.2266z" fill="#ffffff"/>
  <text x="0.0" y="117.5" font-size="5.0" font-weight="bold" font-family="Arbeit Regular, Helvetica, Arial-Unicode, Arial, Sans-serif" fill="#ffffff"></text>
  <text x="0.0" y="122.5" font-size="5.0" font-weight="bold" font-family="Arbeit Regular, Helvetica, Arial-Unicode, Arial, Sans-serif" fill="#ffffff"></text>
</svg>
