<svg xmlns="http://www.w3.org/2000/svg" version="1.1" viewBox="-5.0 -10.0 110.0 135.0">
    <path fill="#0A58FF" d="m60.531 83.281c27.621-3.5195 27.641-21.039 27.641-27.23 0-1.3984-0.039063-2.8281-0.10938-4.2617-8.6797 3.5195-24.809 12.539-27.539 31.488z"/>
    <path fill="#0A58FF" d="m39.469 83.281c-2.7305-18.961-18.859-27.969-27.539-31.488-0.070313 1.4414-0.10938 2.8594-0.10938 4.2617 0 6.1914 0.019532 23.711 27.641 27.23z"/>
    <path fill="#0A58FF" d="m16.762 21.059h66.48c-0.62109-2.5703-1.1914-4.7383-1.6211-6.3398-0.37109-1.3711-1.6289-2.3203-3.0508-2.3203h-57.141c-1.4219 0-2.6797 0.96094-3.0508 2.3203-0.44141 1.6094-1.0117 3.7812-1.6211 6.3398z"/>
    <path fill="#0A58FF" d="m71.32 43.238c-4.3906 0-7.9609-3.5703-7.9609-7.9609s3.5703-7.9609 7.9609-7.9609h17.609l-0.35938-2.6797c-0.19922-1.4688-1.4609-2.5781-2.9414-2.5781h-71.258c-1.4805 0-2.75 1.1094-2.9414 2.5781l-0.35938 2.6797h17.609c4.3906 0 7.9609 3.5703 7.9609 7.9609s-3.5703 7.9609-7.9609 7.9609h-19.73l-0.48828 3.6992c-0.19141 1.3906 0.60156 2.6992 1.9219 3.1797 8.3086 3.0195 27.879 12.43 30.262 34.359 0.14844 1.3516 1.1719 2.4297 2.4805 2.6406 2.0703 0.32812 4.3789 0.48828 6.8789 0.48828s4.8203-0.17188 6.8789-0.48828c1.3086-0.21094 2.3281-1.2891 2.4805-2.6406 2.3789-21.93 21.949-31.34 30.262-34.359 1.3203-0.48047 2.1094-1.7891 1.9219-3.1797l-0.48828-3.6992zm-6.6914 13.16c-1.3398 5.4297-6.4609 12.09-14.52 13.891-0.039063 0-0.070313 0.011719-0.10938 0.011719s-0.070312 0-0.10938-0.011719c-8.0586-1.7891-13.18-8.4609-14.52-13.891-0.94922-3.8516-0.10156-7.25 2.3398-9.3203 4.6914-3.9805 10.809 0.37891 12.289 1.5508 1.4805-1.1719 7.6016-5.5312 12.289-1.5508 2.4414 2.0703 3.2891 5.4688 2.3398 9.3203z"/>
    <path fill="#0A58FF" d="m28.68 42.238c3.8398 0 6.9609-3.1211 6.9609-6.9609s-3.1211-6.9609-6.9609-6.9609l-20.168 0.003906c-1.0898 0-1.9883 0.82031-2.0898 1.8984l-0.91016 9.7188c-0.058594 0.58984 0.12891 1.1719 0.53906 1.6094 0.39844 0.44141 0.94922 0.67969 1.5508 0.67969h21.078z"/>
    <path fill="#0A58FF" d="m93.578 30.219c-0.10156-1.0781-1-1.8984-2.0898-1.8984h-20.172c-3.8398 0-6.9609 3.1211-6.9609 6.9609s3.1211 6.9609 6.9609 6.9609h21.078c0.60156 0 1.1484-0.23828 1.5508-0.67969 0.39844-0.44141 0.58984-1.0117 0.53906-1.6094l-0.91016-9.7188z"/>
    <path fill="#0A58FF" d="m61.648 47.84c-4.6797-3.9688-11.25 1.75-11.309 1.8086-0.19141 0.17187-0.46875 0.17187-0.66016 0-0.050782-0.039063-3.6797-3.2109-7.4688-3.2109-1.3086 0-2.6406 0.37891-3.8398 1.3984-2.1719 1.8398-2.8789 4.8008-2.0117 8.3203 1.3086 5.2812 6.4102 11.461 13.66 13.121 7.25-1.6602 12.352-7.8516 13.66-13.121 0.87109-3.5195 0.16016-6.4805-2.0117-8.3203z"/>
</svg>