<svg width="50" height="50" viewBox="0 0 50 50" fill="none" xmlns="http://www.w3.org/2000/svg">
<g clip-path="url(#clip0_1_3067)">
<path d="M0 10.95C0 12.8833 0.516667 14.7167 1.55 16.45C2.78333 12.9833 4.71667 9.95 7.35 7.35C9.98333 4.75 13.0167 2.81667 16.45 1.55C14.6833 0.516667 12.85 0 10.95 0C7.91667 0 5.33333 1.08333 3.2 3.25C1.06667 5.41667 0 7.98333 0 10.95ZM3.15 25C3.15 27.9 3.7 30.6667 4.8 33.3C5.9 35.9333 7.43333 38.2667 9.4 40.3V46.9C9.4 47.7667 9.7 48.5 10.3 49.1C10.9 49.7 11.6333 50 12.5 50C13.3667 50 14.1 49.7 14.7 49.1C15.3 48.5 15.6167 47.7667 15.65 46.9V44.7C18.6833 46.1667 21.8 46.9 25 46.9C28.2 46.9 31.3333 46.1667 34.4 44.7V46.9C34.4 47.7667 34.7 48.5 35.3 49.1C35.9 49.7 36.6333 50 37.5 50C38.3667 50 39.1 49.7 39.7 49.1C40.3 48.5 40.6167 47.7667 40.65 46.9V40.3C42.6167 38.2667 44.15 35.95 45.25 33.35C46.35 30.75 46.9 27.9667 46.9 25C46.9 22.0333 46.3167 19.2 45.15 16.5C43.9833 13.8 42.4333 11.4667 40.5 9.5C38.5667 7.53333 36.2333 5.98333 33.5 4.85C30.7667 3.71667 27.9333 3.13333 25 3.1C22.0667 3.06667 19.2333 3.65 16.5 4.85C13.7667 6.05 11.4333 7.6 9.5 9.5C7.56667 11.4 6.01667 13.7333 4.85 16.5C3.68333 19.2667 3.11667 22.1 3.15 25ZM9.4 25C9.4 22.8667 9.8 20.85 10.6 18.95C11.4 17.05 12.5167 15.3833 13.95 13.95C15.3833 12.5167 17.05 11.4 18.95 10.6C20.85 9.8 22.8667 9.38333 25 9.35C27.8333 9.35 30.45 10.05 32.85 11.45C35.25 12.85 37.15 14.75 38.55 17.15C39.95 19.55 40.65 22.1667 40.65 25C40.65 27.1 40.2333 29.1167 39.4 31.05C38.5667 32.9833 37.45 34.65 36.05 36.05C34.65 37.45 32.9833 38.5667 31.05 39.4C29.1167 40.2333 27.1 40.6333 25 40.6C22.1667 40.6 19.55 39.9167 17.15 38.55C14.75 37.1833 12.8667 35.2833 11.5 32.85C10.1333 30.4167 9.43333 27.8 9.4 25ZM21.9 25C21.9 25.8667 22.2 26.6 22.8 27.2C23.4 27.8 24.1333 28.1 25 28.1H31.25C32.1167 28.1 32.85 27.8 33.45 27.2C34.05 26.6 34.3667 25.8667 34.4 25C34.4333 24.1333 34.1167 23.4 33.45 22.8C32.7833 22.2 32.05 21.8833 31.25 21.85H28.15V18.75C28.15 17.8833 27.8333 17.15 27.2 16.55C26.5667 15.95 25.8333 15.6333 25 15.6C24.1667 15.5667 23.4333 15.8833 22.8 16.55C22.1667 17.2167 21.8667 17.95 21.9 18.75V25ZM33.55 1.55C37.0167 2.81667 40.05 4.75 42.65 7.35C45.25 9.95 47.1833 12.9833 48.45 16.45C49.4833 14.7167 50 12.8833 50 10.95C50 7.95 48.9333 5.38333 46.8 3.25C44.6667 1.11667 42.0833 0.0333333 39.05 0C37.15 0 35.3167 0.516667 33.55 1.55Z" fill="#6F0094"/>
</g>
<defs>
<clipPath id="clip0_1_3067">
<rect width="50" height="50" fill="white"/>
</clipPath>
</defs>
</svg>
