<svg xmlns="http://www.w3.org/2000/svg" xmlns:xlink="http://www.w3.org/1999/xlink" version="1.1" x="0px" y="0px" fill="#0A58FF"  viewBox="0 0 66 82.5" style="enable-background:new 0 0 66 66;" xml:space="preserve"><path d="M45.6,9.03c-0.57-1.76-2.46-2.71-4.21-2.14l-6.23,2.03l-1.17-3.59c-0.82-2.53-3.55-3.91-6.08-3.09L16.06,6.11  c-2.53,0.82-3.92,3.55-3.09,6.08l1.17,3.59L7.9,17.81c-1.75,0.57-2.71,2.45-2.14,4.2c0.14,0.44,0.37,0.82,0.65,1.15l39.34-12.82  C45.79,9.91,45.74,9.47,45.6,9.03z M17.81,14.58l-1.17-3.59c-0.17-0.51,0.11-1.05,0.61-1.22l11.86-3.86  c0.5-0.16,1.05,0.11,1.21,0.62l1.17,3.59L17.81,14.58z"/><path d="M30.8,46.64V32.67c0-0.56,0.44-1,1-1c0.55,0,1,0.44,1,1v9.92c0.92-1.54,1.98-2.96,3.17-4.2v-5.72c0-0.44,0.27-0.8,0.66-0.94  l-1.15-2.09l1.71-0.98c0.51-0.29,1.33-0.68,2.62-0.68c1.41,0,2.43,0.45,3.25,0.81c0.62,0.27,1.07,0.47,1.65,0.47  c0.19,0,0.37-0.02,0.55-0.07l0.64-5.3H12.52L17.34,64h10.32c-0.59-0.74-0.99-1.64-1.1-2.62c-0.21-1.77,0.49-3.5,1.86-4.63  c0.34-0.28,0.54-0.83,0.54-1.45C28.96,52.64,29.62,49.59,30.8,46.64z M22.45,55.23c0,0.55-0.45,1-1,1c-0.55,0-1-0.45-1-1V32.67  c0-0.56,0.45-1,1-1c0.55,0,1,0.44,1,1V55.23z M27.62,55.23c0,0.55-0.44,1-1,1c-0.55,0-1-0.45-1-1V32.67c0-0.56,0.45-1,1-1  c0.56,0,1,0.44,1,1V55.23z"/><path d="M39.81,29.98c-0.76,0-1.23,0.19-1.63,0.42l3.44,6.28h5.67l3.51-6.48c-0.32-0.13-0.69-0.21-1.21-0.21  c-1.99,0-2.91,1.27-4.89,1.27C42.72,31.25,41.8,29.98,39.81,29.98z"/><path d="M39.13,15.65l-0.88,2.57l-0.42-0.15c-1.14-0.39-2.38,0.22-2.77,1.35l-0.85,2.47h9.56c0.11-0.98-0.46-1.94-1.44-2.27  l-0.41-0.14l0.88-2.57L39.13,15.65z"/><polygon points="30.89,21.89 29.51,19.02 23.58,21.89 "/><path d="M59.23,58.28c-0.88-0.72-1.27-1.86-1.27-2.99v-0.03c0-5.42-3.08-12.7-7.57-16.59H38.54c-4.5,3.89-7.57,11.17-7.57,16.59  v0.03c0,1.13-0.39,2.27-1.27,2.99c-0.8,0.66-1.28,1.71-1.15,2.86C28.73,62.8,30.24,64,31.91,64h25.11c1.67,0,3.17-1.2,3.36-2.85  C60.51,59.99,60.03,58.95,59.23,58.28z M53.98,56.95c-0.01,0-0.02,0-0.03,0c-0.54,0-0.98-0.43-1-0.97  c-0.13-4.42-3.25-11.25-7.08-13.44c-0.48-0.27-0.65-0.88-0.37-1.36c0.27-0.48,0.88-0.65,1.36-0.37c4.45,2.54,7.94,10.08,8.09,15.11  C54.96,56.47,54.53,56.93,53.98,56.95z"/></svg>