<svg xmlns="http://www.w3.org/2000/svg" version="1.1" viewBox="-5.0 -10.0 110.0 135.0">
    <path fill="#0A58FF" d="m96.738 43.762c-0.003906-0.015625 0-0.027344-0.003906-0.042969l-10.387-31.711c-0.054687-0.17187-0.21875-0.28906-0.39844-0.28906h-75.035c-0.19531 0-0.35937 0.13281-0.40625 0.32031l-7.7422 31.957c-0.003906 0.011718 0 0.027344 0 0.039062-0.003906 0.039063-0.007813 0.074219 0 0.10938 0.003906 0.023438 0.007813 0.042969 0.011719 0.066407 0.011718 0.035156 0.027344 0.066406 0.046875 0.097656 0.007812 0.015625 0.011719 0.03125 0.019531 0.042968 0.003906 0.007813 0.011719 0.007813 0.019531 0.015626 0.007813 0.007812 0.007813 0.015624 0.015625 0.023437l1.7188 1.7227c0.078125 0.078125 0.18359 0.12109 0.29688 0.12109h0.6875v41.25c0 0.23047 0.1875 0.41797 0.41797 0.41797h87.391c0.23047 0 0.41797-0.1875 0.41797-0.41797v-41.863h1.1797c0.10938 0 0.21875-0.042969 0.29688-0.12109l1.3516-1.3516c0.007812-0.007813 0.011719-0.023438 0.019531-0.03125 0.007812-0.007813 0.015625-0.011719 0.023438-0.019532 0.007812-0.011718 0.007812-0.027344 0.015624-0.039062 0.019532-0.035156 0.035157-0.070313 0.042969-0.10938 0.003907-0.023438 0.011719-0.042969 0.011719-0.0625 0.003906-0.042969 0-0.082031-0.011719-0.125zm-53.082 43.301h-37.242v-1.1641h37.242zm14.871 0h-14.105v-18.375h14.105zm-14.965-19.137 0.95312-1.8164h14.133l0.69141 1.8164zm49.406 19.137h-33.676v-1.2266h33.676zm0-1.9922h-33.676v-16.379h0.60156c0.125 0 0.24219-0.0625 0.31641-0.16406 0.070312-0.10156 0.085937-0.23438 0.042968-0.35156l-0.98438-2.582c-0.054687-0.14844-0.19922-0.24609-0.35547-0.24609h-14.625c-0.14062 0-0.27344 0.078125-0.33984 0.20703l-1.3516 2.582c-0.0625 0.11719-0.058594 0.26172 0.011719 0.375s0.19141 0.18359 0.32812 0.18359h0.72266v16.441l-37.246-0.003907v-38.898h31.172c0.23047 0 0.41797-0.1875 0.41797-0.41797v-6.6289l12.859-18.336 13.469 18.828v5.5195c0 0.23047 0.1875 0.41797 0.41797 0.41797h28.219zm1.8438-40.289h-29.645v-5.2344c0-0.085937-0.027344-0.17188-0.078125-0.24219l-13.891-19.422c-0.078125-0.10937-0.17578-0.18359-0.34375-0.17578-0.13672 0-0.26172 0.066407-0.33984 0.17969l-13.273 18.93c-0.050782 0.070313-0.074219 0.15625-0.074219 0.24219v6.3398l-32.105-0.003907-0.88281-0.88281h32.055c0.23047 0 0.41797-0.1875 0.41797-0.41797v-5.3984l14.211-19.941 14.828 20.566 0.23828 4.5469c0.011718 0.22266 0.19531 0.39844 0.41797 0.39844h28.98z"/>
    <path fill="#0A58FF" d="m56.328 42.754h-9.7695c-0.23047 0-0.41797 0.1875-0.41797 0.41797v13.918c0 0.23047 0.1875 0.41797 0.41797 0.41797h9.7695c0.23047 0 0.41797-0.1875 0.41797-0.41797v-13.918c0-0.23047-0.1875-0.41797-0.41797-0.41797zm-0.41797 13.918h-8.9336v-13.082h8.9336z"/>
    <path fill="#0A58FF" d="m47.789 44.223h2.8906c0.23047 0 0.41797 0.23047 0.41797 0.41797v4.918c0 0.23047-0.1875 0.41797-0.41797 0.41797h-2.8906c-0.23047 0-0.41797-0.23047-0.41797-0.41797v-4.918c0-0.23047 0.1875-0.41797 0.41797-0.41797z"/>
    <path fill="#0A58FF" d="m52.09 44.223h2.8867c0.23047 0 0.41797 0.23047 0.41797 0.41797v4.918c0 0.23047-0.1875 0.41797-0.41797 0.41797h-2.8867c-0.23047 0-0.41797-0.23047-0.41797-0.41797v-4.918c0-0.23047 0.1875-0.41797 0.41797-0.41797z"/>
    <path fill="#0A58FF" d="m47.789 50.492h2.8906c0.23047 0 0.41797 0.23047 0.41797 0.41797v4.918c0 0.23047-0.1875 0.41797-0.41797 0.41797h-2.8906c-0.23047 0-0.41797-0.23047-0.41797-0.41797v-4.918c0-0.23047 0.1875-0.41797 0.41797-0.41797z"/>
    <path fill="#0A58FF" d="m52.09 50.492h2.8867c0.23047 0 0.41797 0.23047 0.41797 0.41797v4.918c0 0.23047-0.1875 0.41797-0.41797 0.41797h-2.8867c-0.23047 0-0.41797-0.23047-0.41797-0.41797v-4.918c0-0.23047 0.1875-0.41797 0.41797-0.41797z"/>
    <path fill="#0A58FF" d="m72.402 59.75h9.7695c0.21094 0 0.38281-0.17188 0.38281-0.38281v-11.617c0-0.21094-0.17188-0.38281-0.38281-0.38281h-9.7695c-0.21094 0-0.38281 0.17187-0.38281 0.38281v11.617c0 0.21094 0.17188 0.38281 0.38281 0.38281zm0.38281-11.617h9.0039v10.852h-9.0039z"/>
    <path fill="#0A58FF" d="m73.629 48.594h2.8906c0.21094 0 0.38281 0.17188 0.38281 0.38281v4.1016c0 0.21094-0.17188 0.38281-0.38281 0.38281h-2.8867c-0.21094 0-0.38281-0.17188-0.38281-0.38281v-4.1016c0-0.21094 0.17188-0.38281 0.38281-0.38281z"/>
    <path fill="#0A58FF" d="m77.93 48.594h2.8906c0.21094 0 0.38281 0.17188 0.38281 0.38281v4.1016c0 0.21094-0.17188 0.38281-0.38281 0.38281h-2.8867c-0.21094 0-0.38281-0.17188-0.38281-0.38281v-4.1016c0-0.21094 0.17188-0.38281 0.38281-0.38281z"/>
    <path fill="#0A58FF" d="m73.629 53.824h2.8867c0.21094 0 0.38281 0.21094 0.38281 0.38281v4.1016c0 0.21094-0.17188 0.38281-0.38281 0.38281h-2.8867c-0.21094 0-0.38281-0.21094-0.38281-0.38281v-4.1016c0-0.21094 0.17188-0.38281 0.38281-0.38281z"/>
    <path fill="#0A58FF" d="m77.934 53.824h2.8867c0.21094 0 0.38281 0.21094 0.38281 0.38281v4.1016c0 0.21094-0.17188 0.38281-0.38281 0.38281h-2.8867c-0.21094 0-0.38281-0.21094-0.38281-0.38281v-4.1016c0-0.21094 0.17188-0.38281 0.38281-0.38281z"/>
    <path fill="#0A58FF" d="m27.785 47.367h-9.7734c-0.21094 0-0.38281 0.17187-0.38281 0.38281v11.617c0 0.21094 0.17188 0.38281 0.38281 0.38281h9.7734c0.21094 0 0.38281-0.17188 0.38281-0.38281v-11.617c0-0.21094-0.17188-0.38281-0.38281-0.38281zm-0.38281 11.617h-9.0078v-10.852h9.0078z"/>
    <path fill="#0A58FF" d="m19.242 48.594h2.8867c0.21094 0 0.38281 0.17188 0.38281 0.38281v4.1016c0 0.21094-0.17188 0.38281-0.38281 0.38281h-2.8906c-0.21094 0-0.38281-0.17188-0.38281-0.38281v-4.1016c0-0.21094 0.17188-0.38281 0.38281-0.38281z"/>
    <path fill="#0A58FF" d="m23.543 48.594h2.8867c0.21094 0 0.38281 0.17188 0.38281 0.38281v4.1016c0 0.21094-0.17188 0.38281-0.38281 0.38281h-2.8906c-0.21094 0-0.38281-0.17188-0.38281-0.38281v-4.1016c0-0.21094 0.17188-0.38281 0.38281-0.38281z"/>
    <path fill="#0A58FF" d="m19.242 53.824h2.8867c0.21094 0 0.38281 0.17188 0.38281 0.38281v4.1055c0 0.21094-0.17188 0.38281-0.38281 0.38281h-2.8867c-0.21094 0-0.38281-0.17187-0.38281-0.38281v-4.1055c0-0.21094 0.17188-0.38281 0.38281-0.38281z"/>
    <path fill="#0A58FF" d="m23.543 53.824h2.8867c0.21094 0 0.38281 0.17188 0.38281 0.38281v4.1055c0 0.21094-0.17188 0.38281-0.38281 0.38281h-2.8867c-0.21094 0-0.38281-0.17187-0.38281-0.38281v-4.1055c0-0.21094 0.17188-0.38281 0.38281-0.38281z"/>
    <path fill="#0A58FF" d="m72.402 80.766h9.7695c0.21094 0 0.38281-0.17188 0.38281-0.38281v-11.617c0-0.21094-0.17188-0.38281-0.38281-0.38281h-9.7695c-0.21094 0-0.38281 0.17188-0.38281 0.38281v11.617c0 0.21094 0.17188 0.38281 0.38281 0.38281zm0.38281-11.613h9.0039v10.852h-9.0039z"/>
    <path fill="#0A58FF" d="m73.629 69.613h2.8867c0.21094 0 0.38281 0.21094 0.38281 0.38281v4.1016c0 0.21094-0.17188 0.38281-0.38281 0.38281h-2.8867c-0.21094 0-0.38281-0.21094-0.38281-0.38281v-4.1016c0-0.21094 0.17188-0.38281 0.38281-0.38281z"/>
    <path fill="#0A58FF" d="m77.934 69.613h2.8867c0.21094 0 0.38281 0.21094 0.38281 0.38281v4.1016c0 0.21094-0.17188 0.38281-0.38281 0.38281h-2.8867c-0.21094 0-0.38281-0.21094-0.38281-0.38281v-4.1016c0-0.21094 0.17188-0.38281 0.38281-0.38281z"/>
    <path fill="#0A58FF" d="m73.629 74.844h2.8867c0.21094 0 0.38281 0.21094 0.38281 0.38281v4.1016c0 0.21094-0.17188 0.38281-0.38281 0.38281h-2.8867c-0.21094 0-0.38281-0.21094-0.38281-0.38281v-4.1016c0-0.21094 0.17188-0.38281 0.38281-0.38281z"/>
    <path fill="#0A58FF" d="m77.934 74.844h2.8867c0.21094 0 0.38281 0.21094 0.38281 0.38281v4.1016c0 0.21094-0.17188 0.38281-0.38281 0.38281h-2.8867c-0.21094 0-0.38281-0.21094-0.38281-0.38281v-4.1016c0-0.21094 0.17188-0.38281 0.38281-0.38281z"/>
    <path fill="#0A58FF" d="m27.785 68.387h-9.7734c-0.21094 0-0.38281 0.17188-0.38281 0.38281v11.617c0 0.21094 0.17188 0.38281 0.38281 0.38281h9.7734c0.21094 0 0.38281-0.17188 0.38281-0.38281v-11.617c0-0.21094-0.17188-0.38281-0.38281-0.38281zm-0.38281 11.613h-9.0078v-10.852h9.0078z"/>
    <path fill="#0A58FF" d="m19.242 69.613h2.8867c0.21094 0 0.38281 0.17188 0.38281 0.38281v4.1016c0 0.21094-0.17188 0.38281-0.38281 0.38281h-2.8867c-0.21094 0-0.38281-0.17188-0.38281-0.38281v-4.1016c0-0.21094 0.17188-0.38281 0.38281-0.38281z"/>
    <path fill="#0A58FF" d="m23.543 69.613h2.8867c0.21094 0 0.38281 0.17188 0.38281 0.38281v4.1016c0 0.21094-0.17188 0.38281-0.38281 0.38281h-2.8867c-0.21094 0-0.38281-0.17188-0.38281-0.38281v-4.1016c0-0.21094 0.17188-0.38281 0.38281-0.38281z"/>
    <path fill="#0A58FF" d="m19.242 74.844h2.8867c0.21094 0 0.38281 0.17188 0.38281 0.38281v4.1055c0 0.21094-0.17188 0.38281-0.38281 0.38281h-2.8867c-0.21094 0-0.38281-0.17188-0.38281-0.38281v-4.1055c0-0.21094 0.17188-0.38281 0.38281-0.38281z"/>
    <path fill="#0A58FF" d="m23.543 74.844h2.8867c0.21094 0 0.38281 0.17188 0.38281 0.38281v4.1055c0 0.21094-0.17188 0.38281-0.38281 0.38281h-2.8867c-0.21094 0-0.38281-0.17188-0.38281-0.38281v-4.1055c0-0.21094 0.17188-0.38281 0.38281-0.38281z"/>
    <path fill="#0A58FF" d="m46.867 84.914h3.9336c0.21094 0 0.38281-0.17187 0.38281-0.38281v-13.398c0-0.21094-0.17188-0.38281-0.38281-0.38281h-3.9336c-0.21094 0-0.38281 0.17188-0.38281 0.38281v13.398c0 0.21094 0.17188 0.38281 0.38281 0.38281zm3.5508-0.76562h-0.17188v-12.633h0.17188z"/>
    <path fill="#0A58FF" d="m52.398 84.914h3.9336c0.21094 0 0.38281-0.17187 0.38281-0.38281v-13.398c0-0.21094-0.17188-0.38281-0.38281-0.38281h-3.9336c-0.21094 0-0.38281 0.17188-0.38281 0.38281v13.398c0 0.21094 0.17188 0.38281 0.38281 0.38281zm3.5469-0.76562h-0.22266v-12.633h0.22266z"/>
</svg>