<?xml version="1.0" encoding="UTF-8"?>
<svg id="Text" xmlns="http://www.w3.org/2000/svg" viewBox="0 0 216 216">
  <defs>
    <style>
      .cls-1 {
        fill: #fff;
      }
    </style>
  </defs>
  <path class="cls-1" d="M104.92,159.42c-26.59,0-48.03-22.26-48.03-48.85,0-14.07,6.06-26.76,15.72-35.58h-.06c8.65-8.41,20.34-13.58,33.23-13.58,8.55,0,16.56,2.29,23.52,6.27,2.71,1.21,7.07,1.41,10.87.5,1.02-.24,1.97-.5,2.8-.74.3.9.48,1.83.53,2.78.02.32.03.64.01.98-.05,2.43-.8,5.14-2.09,7.69-.57,1.13-1.24,2.23-2.01,3.25-.94,1.25-2.46,2.97-4.51,4.33-1.75.62-3.62,1.01-5.58,1.12-2.96.17-5.79-.29-8.36-1.26,1.6,2.81,2.52,6.05,2.52,9.51,0,10.63-8.61,19.24-19.24,19.24-2.42,0-4.73-.45-6.86-1.26,1.37,2.65,2.15,5.65,2.15,8.83,0,9.73-7.23,17.77-16.61,19.06,7.16,8.01,17.57,13.06,29.16,13.06.54,0,1.08-.02,1.62-.04,0,0,0,0,0,0,10.32,0,23.02-3.18,35.26-11.48,7.84-5.32,19.77-20.31,15.34-20.08-6.02.32-10.32-1.34-13.35-3.48.13-1.32.2-2.66.2-4.01,0-9.85-3.65-18.85-9.66-25.72,1.2-1.09,2.33-2.34,3.38-3.74.35-.46.68-.93.99-1.41,1.47-2.24,2.62-4.66,3.38-7.1.83-2.68,1.21-5.38,1.06-7.9-.16-2.7-.91-5.28-2.26-7.67-.12-.23-.25-.44-.38-.66l-1.48-2.36-2.61.98c-3.31,1.24-10.34,2.79-11.97,2.25l.04.02h0s-.03-.01-.04-.02c-7.86-4.34-16.9-6.81-26.5-6.81-24.52,0-45.34,16.12-52.43,38.31-1.26,4.9-1.93,10.03-1.93,15.32,0,34.09,25.77,56.51,54.17,50.25M119.47,127.59c-3.59,0-6.83-.9-8.93-1.48l1.64-5.92c8.07,2.23,13.54,2.07,17.58-5.4l5.4,2.92c-4.28,7.89-10.36,9.86-15.68,9.86Z"/>
</svg>