<?xml version="1.0" encoding="UTF-8"?>
<svg id="Text" xmlns="http://www.w3.org/2000/svg" viewBox="0 0 216 216">
  <defs>
    <style>
      .cls-1 {
        fill: #fff;
      }
    </style>
  </defs>
  <path class="cls-1" d="M156.82,94.93c-3.64.19-6.24-.81-8.08-2.1.08-.8.12-1.61.12-2.43,0-5.96-2.21-11.4-5.85-15.56.73-.66,1.41-1.42,2.04-2.26.21-.28.41-.57.6-.85.89-1.35,1.58-2.82,2.05-4.29.5-1.62.73-3.25.64-4.78-.09-1.63-.55-3.19-1.37-4.64-.07-.14-.15-.27-.23-.4l-.9-1.43-1.58.59c-2,.75-6.25,1.69-7.24,1.36h.02v.02s-.02-.01-.02-.02c-4.76-2.63-10.22-4.12-16.03-4.12-18.36,0-33.29,14.94-33.29,33.29,0,7.98,2.82,15.3,7.52,21.04-2-.22-4.03-.34-6.1-.34-11.58,0-22.19,3.61-30.48,9.61-.04.76-.06,1.53-.06,2.31,0,23.23,18.83,42.06,42.06,42.06,14.97,0,28.12-7.83,35.57-19.61,4.11-6.5,6.49-14.2,6.49-22.45,0-2.78.04-3.7-.47-6.33-5.09,4.44-12.07,5.34-19.36,5.34-16.08,0-31.05-15.55-31.05-31.63,0-8.51,3.67-16.19,9.51-21.52h-.04c5.23-5.08,12.31-8.21,20.1-8.21,5.17,0,10.02,1.38,14.23,3.79,1.64.73,4.27.85,6.58.3.62-.14,1.19-.3,1.69-.45.18.54.29,1.11.32,1.68.01.19.02.39,0,.59-.03,1.47-.48,3.11-1.26,4.65-.34.68-.75,1.35-1.22,1.97-.57.76-1.49,1.8-2.73,2.62-1.06.37-2.19.61-3.38.68-1.79.1-3.5-.18-5.06-.76.97,1.7,1.52,3.66,1.52,5.75,0,6.43-5.21,11.64-11.64,11.64-1.46,0-2.86-.27-4.15-.76.83,1.6,1.3,3.42,1.3,5.34,0,5.89-4.37,10.75-10.05,11.53,4.33,4.85,10.63,7.9,17.64,7.9.33,0,.66-.01.98-.02,0,0,0,0,0,0,6.24,0,13.92-1.92,21.33-6.94,4.74-3.22,11.96-12.29,9.28-12.15ZM104.38,126.73l-1.65.86-1.64.86s-2.6-4.89-6.67-7.02c-3.65-1.91-7.16-2.36-8.54-1.1-1.47,1.34-1.11,5,.98,10.05l1.01,2.44-2.64.13c-2.09.11-5.25.9-5.75,2.11-.29.71.38,2.07,1.8,3.63,1.71,1.89,5.27,3.96,9.06,4.06,2.61.07,4.84-.81,6.66-2.62l2.62,2.63c-2.44,2.43-5.55,3.7-9,3.7-.12,0-.25,0-.37,0-4.9-.13-9.42-2.74-11.71-5.28-2.55-2.81-3.38-5.35-2.47-7.55.74-1.79,2.56-3.08,5.39-3.82.39-.1.77-.19,1.13-.26-1.96-5.67-1.69-9.69.8-11.97,2.67-2.45,7.45-2.24,12.77.55,5.11,2.68,8.11,8.35,8.24,8.59ZM129.7,97.6c-2.17,0-4.13-.54-5.4-.89l.99-3.58c4.88,1.35,8.19,1.25,10.64-3.26l3.26,1.77c-2.59,4.77-6.27,5.97-9.49,5.97Z"/>
</svg>