<svg width="49" height="49" viewBox="0 0 49 49" fill="none" xmlns="http://www.w3.org/2000/svg">
<path fill-rule="evenodd" clip-rule="evenodd" d="M41.6336 15.0979L41.3536 14.5979C40.9924 13.9933 40.483 13.4908 39.8736 13.1379L26.4536 5.39791C25.846 5.04541 25.1562 4.85915 24.4536 4.85791H23.8736C23.171 4.85915 22.4812 5.04541 21.8736 5.39791L8.45358 13.1579C7.84752 13.5084 7.3441 14.0118 6.99358 14.6179L6.71358 15.1179C6.36108 15.7256 6.17482 16.4154 6.17358 17.1179V32.6179C6.17482 33.3205 6.36108 34.0103 6.71358 34.6179L6.99358 35.1179C7.35316 35.7169 7.85456 36.2183 8.45358 36.5779L21.8936 44.3179C22.4982 44.6777 23.19 44.8645 23.8936 44.8579H24.4536C25.1562 44.8567 25.846 44.6705 26.4536 44.3179L39.8736 36.5579C40.4856 36.2153 40.991 35.7099 41.3336 35.0979L41.6336 34.5979C41.9818 33.9885 42.1678 33.2999 42.1736 32.5979V17.0979C42.1724 16.3954 41.9862 15.7056 41.6336 15.0979ZM23.8736 8.85791H24.4536L36.1736 15.6179L24.1736 22.5379L12.1736 15.6179L23.8736 8.85791ZM26.1736 39.8579L37.8736 33.0979L38.1736 32.5979V19.0779L26.1736 26.0179V39.8579Z" fill="black"/>
</svg>
