<svg width="47" height="48" viewBox="0 0 47 48" fill="none" xmlns="http://www.w3.org/2000/svg">
<path d="M47 23.6129C47 28.2831 45.6217 32.8484 43.0395 36.7315C40.4573 40.6146 36.7871 43.6412 32.4931 45.4284C28.199 47.2156 23.4739 47.6832 18.9154 46.7721C14.3568 45.861 10.1695 43.6121 6.883 40.3097C3.59647 37.0074 1.35831 32.8 0.451556 28.2195C-0.455196 23.6391 0.0101822 18.8913 1.78884 14.5766C3.5675 10.2619 6.57955 6.57411 10.4441 3.97949C14.3087 1.38487 18.8521 1.88429e-07 23.5 1.88429e-07C26.5862 -0.000391575 29.6422 0.610107 32.4935 1.79663C35.3449 2.98315 37.9356 4.72245 40.1179 6.91518C42.3001 9.10792 44.0311 11.7111 45.212 14.5762C46.3928 17.4412 47.0004 20.5119 47 23.6129ZM32.6216 28.8443C32.6191 27.2238 32.0329 25.659 30.9712 24.4391L30.9682 24.4331C30.2658 23.6293 29.4265 22.9577 28.4897 22.4497L28.4808 22.4437C27.6686 22.0201 26.8043 21.7062 25.9103 21.5102H25.9043C25.1286 21.3441 24.3376 21.2611 23.5445 21.2626C23.0723 21.2655 22.6007 21.2286 22.1346 21.1523C21.6257 21.0672 21.1318 20.9084 20.6683 20.681L20.6623 20.6781C20.2385 20.4607 19.8637 20.1582 19.5611 19.7893L19.5581 19.7863C19.2452 19.4186 19.0625 18.9571 19.0387 18.474C19.0619 18.0774 19.1899 17.6942 19.4096 17.364C19.6292 17.0337 19.9326 16.7682 20.2883 16.5949C21.2867 16.0058 22.4253 15.6996 23.5831 15.7091C23.9749 15.7408 24.3633 15.8067 24.7437 15.906L24.8892 15.9358C25.3726 16.0527 25.843 16.2186 26.2932 16.4309C26.7124 16.6221 27.0952 16.8856 27.4241 17.2094C27.6387 17.4442 27.8984 17.6329 28.1876 17.7642C28.4768 17.8955 28.7894 17.9666 29.1067 17.9733C29.4239 17.9799 29.7392 17.9219 30.0336 17.8029C30.3279 17.6838 30.5953 17.5061 30.8194 17.2804C31.0436 17.0548 31.22 16.7858 31.338 16.4898C31.456 16.1939 31.5131 15.8769 31.5059 15.5582C31.4987 15.2394 31.4274 14.9254 31.2962 14.6351C31.1651 14.3448 30.9767 14.0841 30.7426 13.8689C30.0121 13.1405 29.1576 12.5496 28.2196 12.1241C27.4726 11.7772 26.6917 11.5093 25.8895 11.3248H25.8865L25.8628 11.3188V8.97451C25.874 8.65744 25.8215 8.34135 25.7085 8.0451C25.5955 7.74885 25.4242 7.47851 25.205 7.25021C24.9857 7.02192 24.7229 6.84035 24.4323 6.71633C24.1416 6.59232 23.8291 6.5284 23.5134 6.5284C23.1976 6.5284 22.8851 6.59232 22.5945 6.71633C22.3038 6.84035 22.041 7.02192 21.8218 7.25021C21.6025 7.47851 21.4312 7.74885 21.3182 8.0451C21.2052 8.34135 21.1527 8.65744 21.164 8.97451V11.2502C19.9665 11.5012 18.8215 11.9594 17.7801 12.6043C16.7535 13.2029 15.8977 14.0572 15.2951 15.0848C14.6925 16.1123 14.3635 17.2785 14.3398 18.471C14.3577 20.0412 14.9121 21.5575 15.9101 22.7659C16.6337 23.6597 17.5383 24.3887 18.5637 24.9043C19.4457 25.3454 20.388 25.652 21.3599 25.814C22.0819 25.9341 22.8127 25.993 23.5445 25.99C24.0032 25.9875 24.4609 26.0334 24.9099 26.1272C25.3916 26.2335 25.8575 26.4019 26.2961 26.6283C26.7239 26.8666 27.1075 27.1774 27.43 27.5469C27.742 27.908 27.9157 28.3691 27.9198 28.8473C27.9198 29.1366 27.9198 29.8136 26.777 30.5563C25.7632 31.1712 24.6011 31.4952 23.4169 31.4928C22.9245 31.468 22.4345 31.4082 21.9506 31.3139C21.4827 31.2134 21.0262 31.0655 20.5881 30.8724C20.1761 30.6885 19.8108 30.4083 19.5284 30.0552C19.3283 29.8141 19.0824 29.6156 18.805 29.4711C18.5276 29.3266 18.2244 29.2392 17.913 29.2138C17.6016 29.1885 17.2883 29.2257 16.9914 29.3234C16.6945 29.4212 16.4199 29.5774 16.1838 29.7829C15.9476 29.9885 15.7547 30.2392 15.6161 30.5206C15.4775 30.802 15.3962 31.1083 15.3768 31.4216C15.3574 31.7349 15.4003 32.049 15.5031 32.3454C15.6059 32.6419 15.7664 32.9147 15.9754 33.1481C16.7489 34.0741 17.7336 34.7985 18.8457 35.2598C19.5843 35.5769 20.3545 35.8139 21.1432 35.9666H21.164V38.302C21.1527 38.6191 21.2052 38.9352 21.3182 39.2314C21.4312 39.5277 21.6025 39.798 21.8218 40.0263C22.041 40.2546 22.3038 40.4362 22.5945 40.5602C22.8851 40.6842 23.1976 40.7481 23.5134 40.7481C23.8291 40.7481 24.1416 40.6842 24.4323 40.5602C24.7229 40.4362 24.9857 40.2546 25.205 40.0263C25.4242 39.798 25.5955 39.5277 25.7085 39.2314C25.8215 38.9352 25.874 38.6191 25.8628 38.302V35.9458C27.0956 35.6803 28.2715 35.1965 29.3357 34.5171C30.327 33.9417 31.1516 33.1163 31.7279 32.1223C32.3042 31.1284 32.6123 30.0005 32.6216 28.8503V28.8443Z" fill="#6F0094"/>
</svg>
