<svg xmlns="http://www.w3.org/2000/svg" version="1.1" viewBox="-5.0 -10.0 110.0 135.0">
    <path fill="#0A58FF" d="m86.367 78.098h-72.734c-0.42969 0-0.78125-0.35156-0.78125-0.78125v-6.3398c0-0.42969 0.35156-0.78125 0.78125-0.78125h72.734c0.42969 0 0.78125 0.35156 0.78125 0.78125v6.3398c0 0.42969-0.35156 0.78125-0.78125 0.78125z" fill-rule="evenodd"/>
    <path fill="#0A58FF" d="m25.242 84.441h-6.1602c-0.42969 0-0.78125-0.35156-0.78125-0.78125v-6.3398c0-0.42969 0.35156-0.78125 0.78125-0.78125h6.1602c0.42969 0 0.78125 0.35156 0.78125 0.78125v6.3398c0 0.42969-0.35156 0.78125-0.78125 0.78125z" fill-rule="evenodd"/>
    <path fill="#0A58FF" d="m80.918 84.441h-6.1602c-0.42969 0-0.78125-0.35156-0.78125-0.78125v-6.3398c0-0.42969 0.35156-0.78125 0.78125-0.78125h6.1602c0.42969 0 0.78125 0.35156 0.78125 0.78125v6.3398c0 0.42969-0.35156 0.78125-0.78125 0.78125z" fill-rule="evenodd"/>
    <path fill="#0A58FF" d="m18.855 66.289v-22.629c0-0.42969 0.35156-0.78125 0.78125-0.78125h9.1055v7.1016c0 0.42969 0.35156 0.78125 0.78125 0.78125h7.543c0.42969 0 0.78125-0.35156 0.78125-0.78125v-7.1016h9.1055c0.42969 0 0.78125 0.35156 0.78125 0.78125v22.652l-0.046875 2.3242h-28.836v-2.3438zm10.562-4.2656h-4.9961c-0.42969 0-0.78125-0.35156-0.78125-0.78125 0-0.42969 0.35156-0.78125 0.78125-0.78125h4.9961c0.42969 0 0.78125 0.35156 0.78125 0.78125 0 0.42969-0.35156 0.78125-0.78125 0.78125zm0.88672-19.145h5.9805v6.3203h-5.9805z" fill-rule="evenodd"/>
    <path fill="#0A58FF" d="m52.262 66.289v-22.629c0-0.42969 0.35156-0.78125 0.78125-0.78125h9.1055v7.1016c0 0.42969 0.35156 0.78125 0.78125 0.78125h7.543c0.42969 0 0.78125-0.35156 0.78125-0.78125v-7.1016h9.1055c0.42969 0 0.78125 0.35156 0.78125 0.78125v24.973h-28.879zm10.562-4.2656h-4.9961c-0.42969 0-0.78125-0.35156-0.78125-0.78125 0-0.42969 0.35156-0.78125 0.78125-0.78125h4.9961c0.42969 0 0.78125 0.35156 0.78125 0.78125 0 0.42969-0.34766 0.78125-0.78125 0.78125zm0.88672-19.145h5.9805v6.3203h-5.9805z" fill-rule="evenodd"/>
    <path fill="#0A58FF" d="m14.949 38.969v-22.629c0-0.42969 0.35156-0.78125 0.78125-0.78125h9.1055v7.1016c0 0.42969 0.35156 0.78125 0.78125 0.78125h7.543c0.42969 0 0.78125-0.35156 0.78125-0.78125v-7.1016h9.1055c0.42969 0 0.78125 0.35156 0.78125 0.78125v22.652l-0.046875 2.3242h-28.836v-2.3438zm10.562-4.2656h-4.9961c-0.42969 0-0.78125-0.35156-0.78125-0.78125s0.35156-0.78125 0.78125-0.78125h4.9961c0.42969 0 0.78125 0.35156 0.78125 0.78125s-0.35156 0.78125-0.78125 0.78125zm0.88672-19.145h5.9805v6.3203h-5.9805z" fill-rule="evenodd"/>
    <path fill="#0A58FF" d="m48.355 38.969v-22.629c0-0.42969 0.35156-0.78125 0.78125-0.78125h9.1055v7.1016c0 0.42969 0.35156 0.78125 0.78125 0.78125h7.543c0.42969 0 0.78125-0.35156 0.78125-0.78125v-7.1016h9.1055c0.42969 0 0.78125 0.35156 0.78125 0.78125v24.973h-28.879zm10.562-4.2656h-4.9961c-0.42969 0-0.78125-0.35156-0.78125-0.78125s0.35156-0.78125 0.78125-0.78125h4.9961c0.42969 0 0.78125 0.35156 0.78125 0.78125s-0.34766 0.78125-0.78125 0.78125zm0.88672-19.145h5.9805v6.3203h-5.9805z" fill-rule="evenodd"/>
</svg>