<svg xmlns="http://www.w3.org/2000/svg" xmlns:xlink="http://www.w3.org/1999/xlink" version="1.1" x="0px" y="0px" viewBox="0 0 100 125" style="enable-background:new 0 0 100 100;" xml:space="preserve"><style type="text/css">
	.st0{fill:none;stroke:#000000;stroke-width:2.0815;stroke-linecap:round;stroke-linejoin:round;stroke-miterlimit:10;}
	.st1{fill:none;stroke:#000000;stroke-width:1.9724;stroke-linecap:round;stroke-linejoin:round;stroke-miterlimit:10;}
	.st2{fill:none;stroke:#000000;stroke-width:2.0355;stroke-linecap:round;stroke-linejoin:round;stroke-miterlimit:10;}
	.st3{fill:none;stroke:#000000;stroke-width:0.6;stroke-linecap:round;stroke-linejoin:round;stroke-miterlimit:10;}
	.st4{fill:none;stroke:#000000;stroke-width:0.6;stroke-miterlimit:10;}
	.st5{fill:none;stroke:#000000;stroke-width:9.8;stroke-miterlimit:10;}
	.st6{fill:none;stroke:#000000;stroke-width:10.2761;stroke-miterlimit:10;}
	.st7{fill:none;stroke:#000000;stroke-width:0.625;stroke-linecap:round;stroke-linejoin:round;stroke-miterlimit:10;}
	.st8{fill:none;stroke:#000000;stroke-width:0.375;stroke-miterlimit:10;}
	.st9{fill:none;stroke:#000000;stroke-width:2;stroke-miterlimit:10;}
	.st10{fill:none;stroke:#000000;stroke-width:1.2917;stroke-miterlimit:10;}
	.st11{fill:none;stroke:#000000;stroke-width:0.45;stroke-miterlimit:10;}
	.st12{fill:none;stroke:#000000;stroke-width:0.95;stroke-linecap:round;stroke-linejoin:round;stroke-miterlimit:10;}
	.st13{fill:none;}
	.st14{fill:none;stroke:#000000;stroke-width:1.0355;stroke-linecap:round;stroke-linejoin:round;stroke-miterlimit:10;}
	.st15{fill:none;stroke:#000000;stroke-width:0.7248;stroke-linecap:round;stroke-linejoin:round;stroke-miterlimit:10;}
	.st16{fill:none;stroke:#000000;stroke-width:0.238;stroke-miterlimit:10;}
	.st17{fill:none;stroke:#000000;stroke-width:0.3095;stroke-miterlimit:10;}
</style><g><polyline class="st2" points="23.7,26.3 30.4,29.3 34.2,63.1 75.9,63.1 75.9,41.6 31,35.1  "/><ellipse cx="69.6" cy="76.2" rx="3.7" ry="3.5"/><ellipse cx="38.7" cy="76.2" rx="3.7" ry="3.5"/><polyline class="st2" points="34.2,63.1 34.6,67.1 30.5,72.7 75.9,72.7  "/><g><g><path d="M54,48.4c-3.9-2.2-7.7-4.8-11.8-6.7c-1.9-0.9-4,1.4-2.3,3c1.8,1.7,3.7,3,5.6,4.5c0.6-1.1,1.3-2.2,1.9-3.3     c-2.9-1.4-6-2.9-8.5-4.9c-1.8-1.4-2.5-3.3-4.1-4.7c-0.6,1.1-1.2,2.1-1.9,3.2c3.3,1.2,7.7,0.6,11.2,1.1c3.1,0.5,6.2,0.9,9.3,1.4     c6.6,0.9,13.4,2.5,20.1,3.1c-0.6-0.5-1.2-0.9-1.8-1.4c0.3,0.9-0.3,3.6-0.3,4.7c0,1.6,0.1,3.1,0.1,4.7c0.1,2.6,0.4,5.3,0.4,7.8     c0.5-0.6,0.9-1.2,1.4-1.8c-2.9,0.8-7.2,0.1-10.2,0.1c-2.9,0-5.8-0.2-8.6-0.2c-6,0-12,0.8-18,0.6c0.6,0.5,1.2,0.9,1.8,1.4     c-1.1-2.7-0.8-7.7-1.1-10.6c-0.2-1.8-0.4-3.7-0.6-5.5c0-0.2-0.1-3-0.4-3.4C36.1,41,36,40.7,36,40.4c-0.8,1.2-0.7,1.8,0.5,1.7     c1.2,0.9,4.6,0.8,6.2,1c3.6,0.5,7,1,10.5,2c5.6,1.5,11.3,2.3,17,3.4c0.6,0.1,1.4,0,1.9-0.5c0.5-0.5,0.7-1,0.9-1.7     c0.3-1-0.3-2-1.3-2.3c-2.8-0.9-6-1.1-9-1.9c-2.3-0.6-6-1.7-8.3-0.9c-3.7,1.4-4.8,10.9-3.1,14c0.8,1.4,1.8,1.6,3.3,1.9     C58,57.9,62,58,65.6,58.1c2.3,0.1,4.3,0.3,5.9-1.5c1.4-1.7,1.8-4.9,1.3-7c-0.5-2-1-2.5-3.1-2.8c-3.4-0.5-6.5-0.2-9.8-1.5     c-1.9-0.7-4-2.2-5.9-0.9c-1.7,1.1-2.3,3.9-2.3,5.8c-0.1,7.8,22.7,8.4,18.3-0.3c-0.3-0.6-1-0.9-1.6-0.9c-2.6-0.1-4.5-0.1-7-1     c-2.2-0.8-4.1-1.4-6.4-1.4c-1.6,0-2.2,1.6-1.6,2.9c1.6,3.7,7.4,4,10.8,4.1c2,0,2.4-2.5,1-3.6c-4-2.9-9.6-3.8-14.1-5.8     c-1.8-0.8-4.4-2.6-6.3-2.9c-1.9-0.2-2.9,1.2-4.6,1.7C38,43.4,39.3,43,38,42.9c-0.9,0-1-0.5-1.9-0.3c-1.1,0.2-1.8,1-2.1,2     c-0.5,1.5,0.3,3.7,0.6,5.1c0.6,3,1,6,1.3,9c0.2,2,3.2,2.7,3.7,0.5c1.1-4.2,1.9-8.4,2.9-12.6c0.2-1.1-0.5-2.6-1.8-2.4     c-2.1,0.2-3.7,1.2-4.1,3.3c-0.3,2,0.5,4.4,0.7,6.3c0.2,1.8,0.1,3.8,0.5,5.6c0.4,2,3.1,1.6,3.7,0c1.4-4,2.4-8.1,3.6-12.1     c-0.8,0.4-1.6,0.9-2.3,1.3c2.1,0.3,5.1,2.4,6.9,3.5c0.5-1.2,1-2.3,1.5-3.5c-3-0.8-5.3-1.7-8.5-1.8c-1.3,0-2.5,1.7-1.6,2.9     c1.9,2.5,5,3.8,7.7,5.2c0.5-1.2,1-2.3,1.5-3.5c-2-0.7-3.9-1.7-5.9-2.5c-1.2-0.5-2.4,0.7-2.4,1.8c0,2.5,1.9,6.3-1.3,7.6     c0.8,0.4,1.6,0.9,2.3,1.3c-1.3-4,10-1.2,11.4-0.8c2.4,0.6,3.3-2.9,1-3.7C51,53.8,47.2,54,43.1,56c-1.7,0.8-0.9,3.6,1,3.6     c9.2-0.4,18.3,0.8,27.6,0.8c1.1,0,2.3-1.2,1.8-2.4c-0.3-0.8-0.6-1.4-1-2.1c-1.2-2.1-4.5-0.2-3.3,1.9c0.2,0.4,0.4,0.8,0.6,1.2     c0.6-0.8,1.2-1.6,1.8-2.4c-9.2,0-18.4-1.2-27.6-0.8c0.3,1.2,0.6,2.4,1,3.6c3.1-1.5,6.1-1.5,9.3-0.4c0.3-1.2,0.7-2.5,1-3.7     c-3.1-0.8-8.9-3-12-1.4c-2,1-4.8,4.5-4,6.9c0.3,0.9,1.4,1.7,2.3,1.3c6-2.4,4.1-6,4.1-11.3c-0.8,0.6-1.6,1.2-2.4,1.8     c2,0.8,3.9,1.8,5.9,2.5c2,0.7,3.4-2.5,1.5-3.5c-1.9-1-5-2.1-6.3-3.9c-0.5,1-1.1,1.9-1.6,2.9c2.7,0.1,4.9,1,7.5,1.7     c2.1,0.6,3.4-2.4,1.5-3.5c-2.2-1.3-5.3-3.5-7.8-3.9c-1-0.2-2,0.3-2.3,1.3c-1.3,4-2.2,8.1-3.6,12.1c1.2,0,2.5,0,3.7,0     c-0.4-1.6-0.2-3.5-0.4-5.2C41,52,39.9,48.1,40.7,48c-0.6-0.8-1.2-1.6-1.8-2.4c-0.9,4.2-1.8,8.4-2.9,12.6c1.2,0.2,2.5,0.3,3.7,0.5     c-0.3-3.4-0.5-7.5-1.6-10.8c-0.7-2.1,0.1-1.2-1.6-1.3c0.1,0,0.7,0.4,0.8,0.5c0.9,0.6,3.1-0.6,3.7-0.8c2.1-0.9,2.4-1.5,4.6-0.5     c1.6,0.7,3.2,1.5,4.8,2.2c4,1.7,8.9,2.5,12.4,5.1c0.3-1.2,0.6-2.4,1-3.6c-2.1,0-6.4,0.2-7.5-2.2c-0.5,1-1.1,1.9-1.6,2.9     c3.5,0.1,6.4,2.3,9.9,2.6c-2.2-0.2,5.6,0.2,1.8-1.2c-1-0.4-3.6,0.4-4.9,0.3c-1-0.1-5.7-0.7-6.2-1.9c0.2-0.8,0.3-1.5,0.5-2.3     c0.6,0.3,1.1,0.5,1.7,0.8c1.7,0.3,3.2,1.3,4.9,1.6c1.4,0.3,2.9,0.2,4.4,0.4c1.3,0.2,3.9-0.1,2,2.7c-1.2,1.8-4.7,1-6.4,0.9     c-2.7-0.2-7.2,0.4-7.9-2.3c-0.5-1.9,0-5.9,1.9-6.8c1.3-0.6,3.7,0.5,5.1,0.8c2.9,0.7,6.2,1,9,1.9c-0.4-0.8-0.9-1.6-1.3-2.3     c1.8-0.3,2.2-0.6,1.2-0.6c-1.6-0.2-3.1-0.4-4.6-0.7c-1.7-0.3-3.4-0.7-5.1-1.1c-3.9-0.9-7.6-2.1-11.5-2.8c-3-0.6-6.1-0.8-9.2-1.3     c-1.7-0.3-4.9-1.5-6.6-0.5c-2.6,1.6-0.3,8.5,0,10.8c0.5,3.7,0,9.1,1.4,12.6c0.3,0.8,0.9,1.4,1.8,1.4c6.1,0.2,12.3-0.5,18.4-0.5     c3.5,0,7.1,0.2,10.6,0.2c2.7,0,6.1,0.6,8.8-0.2c0.8-0.2,1.4-1,1.4-1.8c0-2.9-0.3-5.9-0.5-8.9c-0.1-2.8,1.1-6.7,0.2-9.3     c-0.3-0.9-0.9-1.3-1.8-1.4c-6.6-0.5-13.1-2.3-19.6-3.1c-2.9-0.4-5.8-0.8-8.7-1.2c-3.4-0.5-8.1,0-11.2-1.1     c-1.8-0.7-3.2,1.9-1.9,3.2c1.5,1.4,2.3,3.4,4,4.9c2.6,2.2,6.2,3.9,9.3,5.4c2.2,1,3.9-1.9,1.9-3.3c-1.7-1.2-3.3-2.4-4.9-3.9     c-0.8,1-1.5,2-2.3,3c4.1,1.9,7.9,4.5,11.8,6.7C54.2,52.9,56.1,49.6,54,48.4L54,48.4z"/></g></g></g><text x="0" y="115" fill="#000000" font-size="5px" font-weight="bold" font-family="'Helvetica Neue', Helvetica, Arial-Unicode, Arial, Sans-serif"></text><text x="0" y="120" fill="#000000" font-size="5px" font-weight="bold" font-family="'Helvetica Neue', Helvetica, Arial-Unicode, Arial, Sans-serif"></text></svg>