<svg xmlns="http://www.w3.org/2000/svg" version="1.1" viewBox="-5.0 -10.0 110.0 135.0">
 <path d="m73.438 18.75h-4.6875v6.25c0 2.5859-2.1016 4.6875-4.6875 4.6875h-28.125c-2.5859 0-4.6875-2.1016-4.6875-4.6875v-6.25h-4.6875c-5.1719 0-9.375 4.2031-9.375 9.375v54.688c0 5.1719 4.2031 9.375 9.375 9.375h46.875c5.1719 0 9.375-4.2031 9.375-9.375v-54.688c0-5.1719-4.2031-9.375-9.375-9.375zm-7.8125 57.812h-31.25c-1.7266 0-3.125-1.3984-3.125-3.125s1.3984-3.125 3.125-3.125h31.25c1.7266 0 3.125 1.3984 3.125 3.125s-1.3984 3.125-3.125 3.125zm0-14.062h-31.25c-1.7266 0-3.125-1.3984-3.125-3.125s1.3984-3.125 3.125-3.125h31.25c1.7266 0 3.125 1.3984 3.125 3.125s-1.3984 3.125-3.125 3.125zm0-14.062h-31.25c-1.7266 0-3.125-1.3984-3.125-3.125s1.3984-3.125 3.125-3.125h31.25c1.7266 0 3.125 1.3984 3.125 3.125s-1.3984 3.125-3.125 3.125z"/>
 <path d="m64.062 14.062h-6.4062c-0.72656-3.5625-3.8828-6.25-7.6562-6.25s-6.9297 2.6875-7.6562 6.25h-6.4062c-0.86328 0-1.5625 0.69922-1.5625 1.5625v9.375c0 0.86328 0.69922 1.5625 1.5625 1.5625h28.125c0.86328 0 1.5625-0.69922 1.5625-1.5625v-9.375c0-0.86328-0.69922-1.5625-1.5625-1.5625z"/>
<text x="0.0" y="117.5" font-size="5.0" font-weight="bold" font-family="Arbeit Regular, Helvetica, Arial-Unicode, Arial, Sans-serif" fill="#000000"></text><text x="0.0" y="122.5" font-size="5.0" font-weight="bold" font-family="Arbeit Regular, Helvetica, Arial-Unicode, Arial, Sans-serif" fill="#000000"></text></svg>