<svg xmlns="http://www.w3.org/2000/svg" version="1.1" viewBox="-5.0 -10.0 110.0 135.0">
 <path d="m16.883 85.336-11.09 11.082c-0.60938 0.60938-1.6016 0.60938-2.2109 0s-0.60938-1.6016 0-2.2109l11.09-11.082c-0.60156-1.0117-0.58594-2.3047 0.089844-3.3203l6.2734-9.4023 8.5742 8.5742-9.4062 6.2695c-1.0156 0.67969-2.3086 0.69141-3.3203 0.089844zm60.465-72.133-4.7266-4.7305c-1.2188-1.2188-1.2188-3.1992 0-4.418s3.1992-1.2188 4.418 0l18.918 18.918c1.2188 1.2227 1.2188 3.1992 0 4.418-1.2188 1.2227-3.1992 1.2227-4.418 0l-4.7305-4.7266-3.8984 3.8984-9.4609-9.4609zm3.625 24.754-7.4023 7.4062-4.7305-4.7305c-0.60938-0.60937-1.6016-0.60937-2.2109 0-0.60938 0.60938-0.60938 1.6016 0 2.2109l4.7305 4.7305-9.6172 9.6133-4.7305-4.7266c-0.60938-0.60938-1.6016-0.60938-2.2109 0-0.60938 0.60937-0.60938 1.6016 0 2.2109l4.7305 4.7305-9.6172 9.6133-4.7266-4.7266c-0.60938-0.60937-1.6016-0.60937-2.2109 0-0.61328 0.60938-0.61328 1.6016 0 2.2109l4.7266 4.7266-8.5078 8.5078c-0.58594 0.58594-1.3828 0.91406-2.2109 0.91406s-1.625-0.32813-2.2109-0.91406l-14.5-14.496c-0.58594-0.58594-0.91406-1.3828-0.91406-2.2109s0.32812-1.6211 0.91406-2.2109l41.773-41.773 18.918 18.918zm12.617 1.5703c1.2227 1.2188 1.2227 3.1992 0 4.418-1.2188 1.2188-3.1992 1.2188-4.418 0l-33.105-33.109c-1.2227-1.2188-1.2227-3.1992 0-4.418 1.2188-1.2188 3.1953-1.2188 4.418 0z" fill-rule="evenodd"/>
<text x="0.0" y="117.5" font-size="5.0" font-weight="bold" font-family="Arbeit Regular, Helvetica, Arial-Unicode, Arial, Sans-serif" fill="#000000"></text><text x="0.0" y="122.5" font-size="5.0" font-weight="bold" font-family="Arbeit Regular, Helvetica, Arial-Unicode, Arial, Sans-serif" fill="#000000"></text></svg>