<svg xmlns="http://www.w3.org/2000/svg" version="1.1" viewBox="-5.0 -10.0 110.0 135.0">
    <path fill="#0A58FF" d="m49.711 71.711s-0.019532-0.050782-0.03125-0.070313c0 0-0.003907-0.007813-0.011719-0.019531-0.44922-1.3516-0.69141-2.75-0.69141-4.1719 0-3.2891 1.2188-6.3711 3.4492-8.6992 0.46875-0.51172 1.0391-0.96875 1.6289-1.3984-0.30078-1.0312-0.64844-2.0391-1.0195-3.1016-0.44141-1.2695-0.89062-2.5898-1.2617-3.9102-0.26953-0.98047-0.46875-1.9883-0.60156-2.9805-0.48047-3.7812 0.078125-7.5117 1.6211-10.809 0.69141-1.4805 2.6719-5 6.1406-5.8398 6-1.4297 11.078 7.7617 12.488 10.602 1.8008 3.6289 2.4688 7.5508 1.8789 11-0.28125 1.6602-0.85156 3.2305-1.3906 4.75-0.42188 1.1797-0.82031 2.3086-1.0898 3.4609l1.6602 1.7617 3.3711-3.5312c2.1289-2.2305 4.9102-3.5117 7.8906-3.6211l0.007812-45.164c0-2.1914-1.7812-3.9688-3.9688-3.9688h-69.812c-2.1914 0-3.9688 1.7812-3.9688 3.9688v69.832c0 2.1992 1.7812 3.9805 3.9688 3.9805h49.723l-7.25-7.6211c-1.2109-1.2695-2.1211-2.7617-2.7188-4.4492zm-30.34-57.23c0-2.3008 1.8789-4.1797 4.1914-4.1797h42.68c2.3008 0 4.1797 1.8711 4.1797 4.1797v8.1992c0 2.3086-1.8711 4.1914-4.1797 4.1914h-42.691c-2.3008 0-4.1914-1.8711-4.1914-4.1914v-8.1992zm-5.6992 62.129h-3.0703c-0.57031 0-1.0195-0.46094-1.0195-1.0195s0.46094-1.0195 1.0195-1.0195h3.0703c0.57031 0 1.0195 0.46094 1.0195 1.0195s-0.46094 1.0195-1.0195 1.0195zm0-10.23h-3.0703c-0.57031 0-1.0195-0.46094-1.0195-1.0195s0.46094-1.0195 1.0195-1.0195h3.0703c0.57031 0 1.0195 0.46094 1.0195 1.0195s-0.46094 1.0195-1.0195 1.0195zm0-10.23h-3.0703c-0.57031 0-1.0195-0.46094-1.0195-1.0195s0.46094-1.0195 1.0195-1.0195h3.0703c0.57031 0 1.0195 0.46094 1.0195 1.0195s-0.46094 1.0195-1.0195 1.0195zm0-10.23h-3.0703c-0.57031 0-1.0195-0.46094-1.0195-1.0195 0-0.55859 0.46094-1.0195 1.0195-1.0195h3.0703c0.57031 0 1.0195 0.46094 1.0195 1.0195 0 0.55859-0.46094 1.0195-1.0195 1.0195zm0-10.23h-3.0703c-0.57031 0-1.0195-0.46094-1.0195-1.0195 0-0.55859 0.46094-1.0195 1.0195-1.0195h3.0703c0.57031 0 1.0195 0.46094 1.0195 1.0195 0 0.55859-0.46094 1.0195-1.0195 1.0195zm0-10.23h-3.0703c-0.57031 0-1.0195-0.46094-1.0195-1.0195s0.46094-1.0195 1.0195-1.0195h3.0703c0.57031 0 1.0195 0.46094 1.0195 1.0195s-0.46094 1.0195-1.0195 1.0195zm0-10.23h-3.0703c-0.57031 0-1.0195-0.46094-1.0195-1.0195 0-0.55859 0.46094-1.0195 1.0195-1.0195h3.0703c0.57031 0 1.0195 0.46094 1.0195 1.0195 0 0.55859-0.46094 1.0195-1.0195 1.0195zm26.961 32.148c-0.12891 0.98828-0.32031 2-0.58984 2.9805-0.37109 1.3281-0.82812 2.6484-1.2695 3.9102-0.62109 1.7891-1.1914 3.4609-1.5703 5.2383-0.66016 3.0898-0.87109 5.9609-0.67969 9.2891 0.14844 2.5195 0.089843 5.4102-1.3594 7.7188-1.1797 1.8789-2.9688 3-5.0391 3.1484-0.14844 0.011719-0.28906 0.019532-0.44141 0.019532-2.0312 0-4.0586-0.98047-5.5-2.6914-1.7812-2.1211-2.6602-4.9297-2.7383-8.8281-0.011718-0.64062-0.011718-1.2695-0.011718-1.8984 0-1.7305 0-3.3516-0.28906-4.9492-0.26172-1.4297-0.75-2.8008-1.2695-4.25-0.53906-1.5195-1.1094-3.0898-1.3906-4.75-0.58984-3.4492 0.078125-7.3711 1.8789-11 1.4102-2.8516 6.4805-12.039 12.488-10.602 3.4805 0.83984 5.4492 4.3594 6.1406 5.8398 1.5391 3.3008 2.1016 7.0312 1.6211 10.809z"/>
    <path fill="#0A58FF" d="m69.621 42.211c-2.2695-4.5703-6-9.6094-9.4102-9.6094-0.25 0-0.51172 0.03125-0.76953 0.089844-1.8008 0.42969-3.5781 2.1914-4.7617 4.7109-1.0586 2.2617-1.5898 4.7617-1.5898 7.3398 0 0.78125 0.039062 1.5703 0.14844 2.3516 0.12109 0.89844 0.28906 1.8008 0.53125 2.6914 0.35938 1.2812 0.80078 2.5508 1.2188 3.7891 0.30078 0.87891 0.60938 1.7617 0.89062 2.6719 4.4492-2.1484 9.7617-1.1992 13.281 2.5l0.039063 0.039062c0.25-0.82812 0.53125-1.6289 0.82031-2.4297 0.53906-1.5117 1.0508-2.9219 1.3008-4.4102 0.51953-3.0391-0.078124-6.5-1.6992-9.7383z"/>
    <path fill="#0A58FF" d="m84.75 57.172c-0.16016-0.011719-0.32031-0.011719-0.48828 0-2.6016 0-5.0391 1.0586-6.8906 2.9883l-3.6992 3.8711c-0.60156 0.62891-1.6992 0.62891-2.2891 0l-3.6992-3.8711c-1.8789-1.9805-4.3906-3-6.8984-3-1.7188 0-3.4414 0.48047-4.9883 1.4492-0.71094 0.44922-1.3398 0.96875-1.8711 1.5508-1.8594 1.9414-2.8906 4.5195-2.8906 7.2812 0 0.94922 0.12891 1.8789 0.37891 2.8008h9.1289c0.5 0 0.96094 0.30078 1.1602 0.76172l2.6602 6.1094 2.6602-6.1094c0.19922-0.46094 0.66016-0.76172 1.1602-0.76172h8.1914l3.1719-7.2812c0.19922-0.46094 0.66016-0.76172 1.1602-0.76172s0.94922 0.30078 1.1602 0.76172l3.1719 7.2812h8.5898c0.96094-3.5586 0.03125-7.4492-2.4805-10.09-1.7109-1.7891-3.9805-2.8594-6.3984-2.9883z"/>
    <path fill="#0A58FF" d="m83.359 71.531-2.6602-6.1016-2.6719 6.1094c-0.19141 0.46094-0.64844 0.76172-1.1484 0.76172h-8.1914l-3.1719 7.2812c-0.21094 0.46094-0.66016 0.75-1.1602 0.75s-0.94922-0.28906-1.1602-0.75l-3.1719-7.2812h-7.8281c0.44922 0.89062 1.0312 1.7188 1.7188 2.4414l18.191 19.078c0.10156 0.12109 0.26172 0.17969 0.42188 0.17969 0.17188 0 0.30859-0.058594 0.44141-0.19141l18.18-19.07c0.69141-0.71875 1.2617-1.5508 1.7188-2.4414h-8.3398c-0.5 0-0.96094-0.30078-1.1602-0.76953z"/>
    <path fill="#0A58FF" d="m32.391 32.699c-0.26172-0.058594-0.51172-0.089844-0.76953-0.089844-3.4102 0-7.1406 5.0312-9.4102 9.6094-1.6094 3.2383-2.2109 6.7109-1.6992 9.7383 0.25 1.4883 0.75 2.8984 1.3008 4.4102 0.51953 1.4688 1.0703 2.9688 1.3594 4.5703 0.32031 1.7812 0.30859 3.5781 0.30859 5.3281 0 0.62109 0 1.2188 0.019531 1.8398 0.070312 3.4219 0.80078 5.8203 2.2617 7.5703 1.1211 1.3281 2.6914 2.0508 4.2188 1.9492 1.3906-0.089844 2.6211-0.87891 3.4414-2.1992 1.1484-1.8203 1.1797-4.3203 1.0586-6.5195-0.19922-3.5312 0.019531-6.5508 0.71875-9.8398 0.39844-1.8906 1.0312-3.7188 1.6289-5.4805 0.42969-1.2305 0.87891-2.5117 1.2188-3.7891 0.23828-0.89062 0.42188-1.7891 0.53125-2.6914 0.42969-3.3906-0.058594-6.75-1.4414-9.6914-1.1719-2.5195-2.9609-4.2812-4.7617-4.7109z"/>
    <path fill="#0A58FF" d="m23.551 24.809h42.68c1.1719 0 2.1406-0.94922 2.1406-2.1406v-8.1875c0-1.1719-0.96094-2.1406-2.1406-2.1406h-42.68c-1.1719 0-2.1406 0.96094-2.1406 2.1406v8.1992c0 1.1797 0.96094 2.1406 2.1406 2.1406zm1.2617-7.7891c0-1.2109 0.98047-2.1914 2.1914-2.1914h36.938c0.57031 0 1.0195 0.46094 1.0195 1.0195s-0.46094 1.0195-1.0195 1.0195l-36.941 0.003906c-0.078125 0-0.14062 0.058594-0.14062 0.14062v4.2812c0 0.57031-0.46094 1.0195-1.0195 1.0195s-1.0195-0.46094-1.0195-1.0195v-4.2812z"/>
</svg>